<?xml version="1.0" encoding="utf-8"?>
<!-- Generator: Adobe Illustrator 22.0.0, SVG Export Plug-In . SVG Version: 6.00 Build 0)  -->
<svg version="1.1" id="Layer_1" xmlns="http://www.w3.org/2000/svg" xmlns:xlink="http://www.w3.org/1999/xlink" x="0px" y="0px"
	 viewBox="0 0 2000 2000" style="enable-background:new 0 0 2000 2000;" xml:space="preserve">
<style type="text/css">
	.st0{fill:#FFFFFF;}
	.st1{fill:#9CDEDC;}
	.st2{fill:#8FD0D6;}
	.st3{opacity:0.2;fill:#74BDC1;}
	.st4{fill:#74BDC1;}
	.st5{fill:#02CCC0;}
	.st6{fill:#06BFAD;}
	.st7{fill:#FEB546;}
	.st8{fill:#F4A640;}
	.st9{opacity:0.5;fill:#FEB546;}
	.st10{opacity:0.3;fill:#FFFFFF;}
	.st11{opacity:0.8;fill:#C0EFFF;}
	.st12{opacity:0.5;}
	.st13{opacity:0.5;fill:#57ACE5;}
	.st14{fill:#FF5B7E;}
	.st15{fill:#E03268;}
	.st16{fill:#07085B;}
	.st17{opacity:0.7;fill:#07085B;}
	.st18{opacity:0.5;fill:#FFFFFF;}
	.st19{opacity:0.5;fill:#FF5B7E;}
	.st20{fill:#57ACE5;}
	.st21{opacity:0.5;fill:#F4A640;}
	.st22{opacity:0.5;fill:#9CDEDC;}
	.st23{fill:#FFC0BB;}
	.st24{fill:#333333;}
	.st25{opacity:0.3;fill:#E87B50;}
	.st26{fill:#F99893;}
	.st27{fill:#050738;}
	.st28{fill:#076493;}
	.st29{opacity:0.2;fill:#FFFFFF;}
	.st30{fill:#1E1E1D;}
	.st31{fill:#B5DBE8;}
	.st32{opacity:0.6;fill:#FC8D84;}
	.st33{fill:#026EAF;}
	.st34{fill:#DD8B28;}
	.st35{opacity:0.5;fill:#DAEEF7;}
	.st36{fill:#DAEEF7;}
</style>
<rect class="st0" width="2000" height="2000"/>
<g>
	<g>
		<path class="st1" d="M1342.3,1840.7c-6.8,4.7-13.8,14.1-21.2,24.1c-6,8.1-12.5,16.7-20.4,25.3h-150.2c4.6-2.2,9.2-4.2,14-6.1
			c10.7-4.2,21.3-7.5,30.7-10.4c13.8-4.3,26.9-8.3,34.3-13.6c6.8-4.8,13.7-14.1,21-24c10.7-14.4,24.1-32.3,45.1-47
			c28.4-19.7,60.3-26.3,85.8-31.6c17.9-3.7,34.8-7.2,43.8-13.7c4.9-3.5,10.5-10,16.4-16.9c3.7-4.3,7.6-8.8,12-13.5
			c36.6-38.7,90.7-65.8,144.8-72.5c3.1-0.4,5.9-0.7,8.7-1c4.4-0.5,45.8-7.4,57.2,0.4l0,0c21.5,14.6,13.2,46.5-15.9,59.7
			c-3.3,1.5-6.8,2.9-10.5,4.1c-14.2,4.9-26.9,6.2-37.1,7.2c-2.3,0.2-4.5,0.5-6.4,0.7c-28.5,3.6-58.2,18.5-77.5,38.9
			c-2.8,3-5.8,6.4-8.9,10c-1,1.1-2,2.3-3,3.5l-37.4,1.1l23.6,13.8c-5.2,5.2-11.2,10.4-18,15.2c-28.7,20.5-61.1,27.3-87.2,32.7
			C1368.2,1830.9,1351.5,1834.4,1342.3,1840.7z"/>
		<path class="st2" d="M1347.1,1729.7c-7.5,7.3-13.8,20.4-20.4,34.2c-9.9,20.6-21,43.9-43.3,66.2c-24.6,24.6-55,39.5-79.5,51.5
			c-6,2.9-11.7,5.8-17.1,8.6h-139.5c20.4-26.1,47.1-49.4,77.8-67.5c12.8-7.6,25.9-14,37.4-19.6c17-8.3,33-16.2,41.2-24.4
			c7.4-7.4,13.6-20.3,20.2-34c9.6-20,21.5-44.9,44.8-67.5c31.4-30.5,71.5-45.7,103.7-58c22.6-8.6,43.9-16.6,53.8-26.6
			c5.3-5.3,10.7-14.6,16.3-24.3c3.6-6.1,7.3-12.5,11.6-19.2c20.1-30.9,48.6-58.6,81.9-80.7l17.2,33.9l-0.8-44.1
			c22.1-12.8,45.8-23.2,70.4-30.4c3.9-1.2,7.6-2.2,11.2-3.1c5.7-1.6,58.4-19.3,76-12.4l0,0c24.3,9.5,30.4,34,18.4,55.3l-50.8,3.6
			l34.5,14.7c-1.3,1-2.6,1.9-4,2.9c-3.9,2.6-8.1,5.1-12.5,7.4c-17.3,9.1-33.7,13.6-46.9,17.2c-3,0.8-5.8,1.6-8.3,2.3
			c-36.7,10.8-71.3,35.7-90.4,64.9c-2.8,4.3-5.6,9.1-8.6,14.3c-4.6,8-9.9,17.1-16.6,26.5l-58.7,9.3l45.6,7.1c-1.8,2-3.7,4-5.7,6
			c-31.5,31.6-72.4,47.1-105.2,59.5C1378.4,1711.8,1357.2,1719.8,1347.1,1729.7z"/>
		<path class="st3" d="M1552.4,1516.5c-137.3,128.3-95.3,111.4-223.1,180.7c-97.2,52.7-92.5,149.3-174.2,193h31.6
			c5.4-2.8,11.1-5.6,17.1-8.6c24.4-12,54.8-26.9,79.5-51.5c22.3-22.2,33.5-45.6,43.3-66.2c6.6-13.8,12.9-26.9,20.4-34.2
			c10.1-9.9,31.3-17.9,53.7-26.4c32.8-12.5,73.7-28,105.2-59.5c2-2,3.9-4,5.7-6l-45.6-7.1l58.7-9.3c6.7-9.4,12-18.5,16.6-26.5
			c3-5.1,5.8-10,8.6-14.3c19.1-29.3,53.7-54.2,90.4-64.9c2.5-0.7,5.3-1.5,8.3-2.3c13.2-3.6,29.6-8.1,46.9-17.2
			c4.4-2.3,8.6-4.8,12.5-7.4c1.4-0.9,2.7-1.9,4-2.9l-34.5-14.7l50.8-3.6c8.2-14.5,8-30.4-0.6-42.2
			C1681.9,1430.5,1621,1452.5,1552.4,1516.5z"/>
		<path class="st4" d="M1453.1,1455.4c-2.5,15.4-5.5,34-14.2,53.9c-32.3,14-95.3,41.2-88.2,38.3c6.7-2.8,50.4-11,76-15.7
			c-22.8,35.2-57.7,60.8-86.5,81.8c-22.2,16.3-43.2,31.6-50.4,45.1c-5.3,10-6.3,25.5-7.4,41.8c-1.6,24.3-3.5,51.9-18.9,82.1
			c-17.1,33.4-45.6,59-68.5,79.5c-9.3,8.4-18.2,16.3-25.2,23.7c-1.3,1.4-2.5,2.7-3.8,4.1h-136.4c11.3-21.4,26-42.1,44-61
			c11.4-12.1,23.7-23,34.5-32.7c15.9-14.3,31-27.7,36.6-38.8c5.2-10.1,6.2-25.4,7.2-41.5c1.6-23.7,3.5-53.1,19.9-84
			c22.1-41.8,61.9-70.9,93.9-94.4c22.4-16.4,43.5-31.9,50.4-45.4c3.7-7.3,5.5-18.5,7.4-30.3c1.2-7.5,2.5-15.2,4.4-23.5
			c14.6-64.3,61.3-127.6,126-171.9l22.8,9.4l-7.9-19.1c3.7-2.2,7.1-4.3,10.5-6.3c6-3.5,59.3-39.5,83.4-38.5l0,0
			c45.4,1.9,64.3,43.9,34.9,78.5c-3.4,4-7.1,7.9-11.2,11.8c-15.9,15.2-33,25.3-46.8,33.5c-3.1,1.8-6.1,3.6-8.7,5.2
			c-37.9,23.5-66.6,60.6-74.9,96.9C1455.1,1443.2,1454.1,1449.2,1453.1,1455.4z"/>
		<path class="st3" d="M1414.8,1380.5c-83.7,139.1-34.3,131.3-112.2,206.4c-77.9,75.1-95.5,68.8-98.3,153.3
			c-1.3,39.5-49.7,98.4-100.9,150h62.7c1.2-1.4,2.5-2.8,3.8-4.1c7-7.4,15.8-15.3,25.2-23.7c22.9-20.5,51.5-46.1,68.5-79.5
			c15.4-30.2,17.3-57.8,18.9-82.1c1.1-16.3,2.1-31.8,7.4-41.8c7.1-13.5,28.1-28.9,50.4-45.1c28.8-21.1,63.7-46.7,86.5-81.8
			c-25.6,4.7-69.3,13-76,15.7c-7.1,2.9,55.9-24.3,88.2-38.3c8.7-19.9,11.7-38.6,14.2-53.9c1-6.3,2-12.2,3.2-17.5
			c8.3-36.3,36.9-73.4,74.9-96.9c2.6-1.6,5.5-3.3,8.7-5.2c13.8-8.1,30.9-18.3,46.8-33.5c4.1-3.9,7.8-7.8,11.2-11.8
			c16.4-19.3,17.8-40.8,8-56.4C1544.8,1256.9,1462.9,1300.6,1414.8,1380.5z"/>
		<path class="st1" d="M1342.3,1840.7c-6.8,4.7-13.8,14.1-21.2,24.1c-6,8.1-12.5,16.7-20.4,25.3h-150.2c4.6-2.2,9.2-4.2,14-6.1
			c10.7-4.2,21.3-7.5,30.7-10.4c13.8-4.3,26.9-8.3,34.3-13.6c6.8-4.8,13.7-14.1,21-24c10.7-14.4,24.1-32.3,45.1-47
			c28.4-19.7,60.3-26.3,85.8-31.6c17.9-3.7,34.8-7.2,43.8-13.7c4.9-3.5,10.5-10,16.4-16.9c3.7-4.3,7.6-8.8,12-13.5
			c36.6-38.7,90.7-65.8,144.8-72.5c3.1-0.4,5.9-0.7,8.7-1c4.4-0.5,45.8-7.4,57.2,0.4l0,0c21.5,14.6,13.2,46.5-15.9,59.7
			c-3.3,1.5-6.8,2.9-10.5,4.1c-14.2,4.9-26.9,6.2-37.1,7.2c-2.3,0.2-4.5,0.5-6.4,0.7c-28.5,3.6-58.2,18.5-77.5,38.9
			c-2.8,3-5.8,6.4-8.9,10c-1,1.1-2,2.3-3,3.5l-37.4,1.1l23.6,13.8c-5.2,5.2-11.2,10.4-18,15.2c-28.7,20.5-61.1,27.3-87.2,32.7
			C1368.2,1830.9,1351.5,1834.4,1342.3,1840.7z"/>
		<path class="st3" d="M1514.2,1711.2c-103.2,65.7-116.7,77.3-169.5,96.6c-37.3,13.7-78.1,57.7-98.8,82.3l54.8-1.1
			c7.9-8.6,14.3-16.1,20.3-24.1c7.4-10,14.4-19.3,21.2-24.1c9.2-6.4,26-9.9,43.7-13.5c26.1-5.4,58.5-12.1,87.2-32.7
			c6.8-4.9,12.7-10.1,18-15.2l-23.6-13.8l37.4-1.1c1-1.2,2.1-2.4,3-3.5c3.1-3.6,6.1-7.1,8.9-10c19.3-20.4,49-35.3,77.5-38.9
			c2-0.2,4.1-0.5,6.4-0.7c10.2-1.1,22.9-2.4,37.1-7.2c3.6-1.2,7.1-2.6,10.5-4.1c15.9-7.2,25.5-19.9,27.6-32.4
			C1626.6,1669.1,1565,1678.9,1514.2,1711.2z"/>
	</g>
	<g>
		<path class="st5" d="M331,861.1c107.1,19.4,191.4,60.1,257.5,113c-13.2,44.3-27.9,97.4-27.9,97.4l71.2-58.6
			c226.6,227,194.9,609.1,194.9,609.1c-236.3-38.7-372.5-129.5-448.4-235.4c19.1-27.1,47.9-67.1,47.9-67.1l-70.7,31.9
			c-31.8-54.8-49.4-112.4-57.9-168c36.8-16.3,78.2-35.9,78.2-35.9l-83.8-18.1C283.7,982.4,331,861.1,331,861.1z"/>
		<path class="st6" d="M378.2,1386.5c19.1-27.1,47.9-67.1,47.9-67.1l-70.7,31.9c-31.8-54.8-49.4-112.4-57.9-168
			c36.8-16.3,78.2-35.9,78.2-35.9l-83.8-18.1c-8.3-147,39-268.3,39-268.3c289.3,242.2,495.6,760.8,495.6,760.8
			C590.3,1583.2,454.1,1492.4,378.2,1386.5z"/>
	</g>
	<g>
		<path class="st7" d="M306.4,1414.3c79.8-27,152.1-31.1,216.7-20c7.7,35,17.6,76.4,17.6,76.4l26.2-66.4
			c238.6,68.8,360.3,339.3,360.3,339.3c-174.5,62.4-300.8,52-391.9,8.7c2.8-25.5,7.3-63.4,7.3-63.4l-35.9,48.1
			c-42.1-25.2-75.6-57.5-102.2-92.1c18.8-24.9,39.5-53.6,39.5-53.6l-63.5,19.2C319.9,1514.2,306.4,1414.3,306.4,1414.3z"/>
		<path class="st8" d="M535.4,1752.4c2.8-25.5,7.3-63.4,7.3-63.4l-35.9,48.1c-42.1-25.2-75.6-57.5-102.2-92.1
			c18.8-24.9,39.5-53.6,39.5-53.6l-63.5,19.2c-60.7-96.4-74.2-196.3-74.2-196.3c286.7,55.5,620.8,329.4,620.8,329.4
			C752.8,1806,626.5,1795.6,535.4,1752.4z"/>
	</g>
	<g>
		<path class="st7" d="M994.2,1580l-28.4-2.3c-15-1.2-26.1-14.4-24.9-29.4l83.5-1007.7l82.6,6.8l-83.5,1007.7
			C1022.3,1570.1,1009.2,1581.2,994.2,1580z"/>
		<path class="st8" d="M1107.1,547.4c-0.4,5-19.2,7.6-42.1,5.7c-22.8-1.9-41-7.5-40.5-12.5s19.2-7.6,42.1-5.7
			C1089.4,536.8,1107.5,542.4,1107.1,547.4z"/>
		<path class="st9" d="M1019,1142.2c-15-0.3-29.6-1.1-43.8-2.2l-33.3,401.7c-1.5,18.4,12.1,34.5,30.5,36l16.1,1.3
			c18.4,1.5,34.5-12.1,36-30.5l33.8-408.2C1045.5,1141.3,1032.4,1141.9,1019,1142.2z"/>
		<path class="st10" d="M990.5,1141l-32.1,387.2c-0.6,7.2,4.8,13.5,12,14.1h0c7.2,0.6,13.5-4.8,14.1-12l32.2-388.3
			C1007.8,1141.9,999.1,1141.5,990.5,1141z"/>
		<path class="st11" d="M1320,1074.4c0,0-127,64.1-301,67.8c-174-3.6-301-67.8-301-67.8s-85.3,40.1,0,125.4
			c60.7,60.7,216.2,67,301,65.7c84.8,1.4,240.3-5,301-65.7C1405.3,1114.5,1320,1074.4,1320,1074.4z"/>
		<path class="st11" d="M1320,1199.8c-60.7,60.7-216.2,67-301,65.7c-84.8,1.4-240.3-5-301-65.7c-0.1-0.1-0.3-0.3-0.4-0.4l85.5,623.1
			c0,0,41.4,63.2,215.9,67.6c174.5-4.4,215.9-67.6,215.9-67.6l85.5-623.1C1320.3,1199.5,1320.1,1199.7,1320,1199.8z"/>
		<g class="st12">
			<path class="st0" d="M1179.6,1193.7c73.2-6.7,125.6-36.9,150.6-54.6c9.1-6.5,10.5-19.5,3-27.7l-0.1-0.1c-6.3-6.9-16.7-8-24.4-2.6
				c-21.3,14.9-67.9,42-132.5,48c-9.8,0.9-17.2,9.2-16.9,19l0,0C1159.6,1186.5,1168.9,1194.7,1179.6,1193.7z"/>
		</g>
		<path class="st11" d="M1019,781.6c-274.8,3.3-301,292.8-301,292.8s127,64.1,301,67.8c174-3.6,301-67.8,301-67.8
			S1293.8,784.9,1019,781.6z"/>
		<g class="st12">
			<path class="st0" d="M785.6,1056.3L785.6,1056.3c-15.1-2-25.3-16.4-22.2-31.4c15-71.4,47.4-115.5,73.4-140.7
				c13-12.5,25.5-21.7,36.1-28.2c14.4-8.8,33.2-1.7,38.4,14.3l0,0.1c3.7,11.5-0.9,24-11.1,30.3c-8.2,5-18.5,12.5-29.1,23.1
				c-28.1,28-47.1,65.6-56.6,112C811.7,1049.2,799.1,1058.1,785.6,1056.3z"/>
		</g>
		<path class="st13" d="M718,1074.4c24,9.7,48.6,17.8,73.4,24.9c151.9,44.8,298.4,46.3,455.2,0c24.8-7.1,49.3-15.2,73.4-24.9
			c-22.7,12.7-46.7,22.7-71.1,31.8c-153.2,55.2-299.2,57.9-459.7,0C764.8,1097.1,740.7,1087.1,718,1074.4z"/>
		<path class="st13" d="M718,1198.7c24,9.7,48.6,17.8,73.4,24.9c153.5,45.2,292.6,48,455.2,0c24.8-7.1,49.3-15.2,73.4-24.9
			c-22.7,12.7-46.7,22.7-71.1,31.8c-153.1,55.2-296.4,58.9-459.7,0C764.8,1221.4,740.7,1211.4,718,1198.7z"/>
		<path class="st14" d="M1002.5,1379.7h-228l50.2,414.3c0,0,38.2,66,198.8,70.5c160.7-4.5,198.8-70.5,198.8-70.5l50.2-414.3H1002.5z
			"/>
		<ellipse class="st15" cx="1023.6" cy="1379.7" rx="249" ry="22.2"/>
		<g>
			<path class="st16" d="M1132.2,1790.6c8.5,23.8-3.9,49.9-27.7,58.4c-23.8,8.5-49.9-3.9-58.4-27.7c-8.5-23.8,3.9-49.9,27.7-58.4
				C1097.5,1754.5,1123.7,1766.9,1132.2,1790.6z"/>
			<path class="st17" d="M1109.9,1765.3c1.5,2.5,2.8,5.2,3.8,8c8.5,23.8-3.9,49.9-27.7,58.4c-12.3,4.4-25.3,3.2-36.1-2.3
				c11,18.4,33.7,27.1,54.6,19.6c23.8-8.5,36.2-34.7,27.7-58.4C1128.1,1779.2,1119.9,1770.4,1109.9,1765.3z"/>
			<path class="st18" d="M1055.6,1802.8c4.7,4.8,14.7,2.5,22.5-5.1c7.7-7.6,10.2-17.6,5.6-22.4c-4.7-4.8-14.7-2.5-22.5,5.1
				S1050.9,1798.1,1055.6,1802.8z"/>
		</g>
		<g>
			<path class="st16" d="M1043.4,1811c0,25.2-20.5,45.7-45.7,45.7c-25.2,0-45.7-20.5-45.7-45.7c0-25.2,20.5-45.7,45.7-45.7
				C1023,1765.3,1043.4,1785.8,1043.4,1811z"/>
			<path class="st17" d="M1030.9,1779.6c0.6,2.9,0.9,5.8,0.9,8.9c0,25.2-20.5,45.7-45.7,45.7c-13.1,0-24.9-5.5-33.2-14.4
				c4.1,21,22.6,36.9,44.8,36.9c25.2,0,45.7-20.5,45.7-45.7C1043.4,1798.9,1038.7,1787.8,1030.9,1779.6z"/>
			<path class="st18" d="M967.2,1796.7c2.8,6.1,13.1,7.3,22.9,2.7c9.9-4.5,15.6-13.1,12.8-19.2c-2.8-6.1-13.1-7.3-22.9-2.7
				C970.1,1782.1,964.4,1790.7,967.2,1796.7z"/>
		</g>
		<g>
			<path class="st16" d="M1209.6,1779.6c0,25.2-20.5,45.7-45.7,45.7s-45.7-20.5-45.7-45.7s20.5-45.7,45.7-45.7
				C1189.1,1733.9,1209.6,1754.4,1209.6,1779.6z"/>
			<path class="st17" d="M1197.1,1748.3c0.6,2.9,0.9,5.8,0.9,8.9c0,25.2-20.5,45.7-45.7,45.7c-13.1,0-24.9-5.5-33.2-14.4
				c4.1,21,22.6,36.9,44.8,36.9c25.2,0,45.7-20.5,45.7-45.7C1209.6,1767.5,1204.8,1756.5,1197.1,1748.3z"/>
			<path class="st18" d="M1133.3,1765.4c2.8,6.1,13.1,7.3,22.9,2.7c9.9-4.5,15.6-13.1,12.8-19.2c-2.8-6.1-13.1-7.3-22.9-2.7
				S1130.5,1759.3,1133.3,1765.4z"/>
		</g>
		<g>
			<path class="st16" d="M1083.1,1743.4c0,25.2-20.5,45.7-45.7,45.7c-25.2,0-45.7-20.5-45.7-45.7c0-25.2,20.5-45.7,45.7-45.7
				S1083.1,1718.1,1083.1,1743.4z"/>
			<path class="st17" d="M1070.6,1712c0.6,2.9,0.9,5.8,0.9,8.9c0,25.2-20.5,45.7-45.7,45.7c-13.1,0-24.9-5.5-33.2-14.4
				c4.1,21,22.6,36.9,44.8,36.9c25.2,0,45.7-20.5,45.7-45.7C1083.1,1731.2,1078.3,1720.2,1070.6,1712z"/>
			<path class="st18" d="M1006.8,1729.1c2.8,6.1,13.1,7.3,22.9,2.7s15.6-13.1,12.8-19.2c-2.8-6.1-13.1-7.3-22.9-2.7
				C1009.8,1714.4,1004,1723,1006.8,1729.1z"/>
		</g>
		<g>
			<path class="st16" d="M950.6,1789.1c0,25.2-20.5,45.7-45.7,45.7c-25.2,0-45.7-20.5-45.7-45.7c0-25.2,20.5-45.7,45.7-45.7
				C930.1,1743.4,950.6,1763.8,950.6,1789.1z"/>
			<path class="st17" d="M938.1,1757.7c0.6,2.9,0.9,5.8,0.9,8.9c0,25.2-20.5,45.7-45.7,45.7c-13.1,0-24.9-5.5-33.2-14.4
				c4.1,21,22.6,36.9,44.8,36.9c25.2,0,45.7-20.5,45.7-45.7C950.6,1776.9,945.9,1765.9,938.1,1757.7z"/>
			<path class="st18" d="M874.4,1774.8c2.8,6.1,13.1,7.3,22.9,2.7c9.9-4.5,15.6-13.1,12.8-19.2c-2.8-6.1-13.1-7.3-22.9-2.7
				C877.3,1760.1,871.6,1768.7,874.4,1774.8z"/>
		</g>
		<g>
			<path class="st16" d="M1006.1,1735.1c0,25.2-20.5,45.7-45.7,45.7c-25.2,0-45.7-20.5-45.7-45.7c0-25.2,20.5-45.7,45.7-45.7
				C985.7,1689.4,1006.1,1709.9,1006.1,1735.1z"/>
			<path class="st17" d="M993.6,1703.8c0.6,2.9,0.9,5.8,0.9,8.9c0,25.2-20.5,45.7-45.7,45.7c-13.1,0-24.9-5.5-33.2-14.4
				c4.1,21,22.6,36.9,44.8,36.9c25.2,0,45.7-20.5,45.7-45.7C1006.1,1723,1001.4,1711.9,993.6,1703.8z"/>
			<path class="st18" d="M929.9,1720.8c2.8,6.1,13,7.3,22.9,2.7c9.9-4.5,15.6-13.1,12.8-19.2c-2.8-6.1-13.1-7.3-22.9-2.7
				C932.8,1706.2,927.1,1714.8,929.9,1720.8z"/>
		</g>
		<g>
			<path class="st16" d="M1163.9,1703.8c0,25.2-20.5,45.7-45.7,45.7c-25.2,0-45.7-20.5-45.7-45.7c0-25.2,20.5-45.7,45.7-45.7
				C1143.4,1658,1163.9,1678.5,1163.9,1703.8z"/>
			<path class="st17" d="M1151.4,1672.4c0.6,2.9,0.9,5.8,0.9,8.9c0,25.2-20.5,45.7-45.7,45.7c-13.1,0-24.9-5.5-33.2-14.4
				c4.1,21,22.6,36.9,44.8,36.9c25.2,0,45.7-20.5,45.7-45.7C1163.9,1691.6,1159.1,1680.6,1151.4,1672.4z"/>
			<path class="st18" d="M1087.6,1689.5c2.8,6.1,13,7.3,22.9,2.7c9.9-4.5,15.6-13.1,12.8-19.2c-2.8-6.1-13.1-7.3-22.9-2.7
				C1090.6,1674.8,1084.8,1683.4,1087.6,1689.5z"/>
		</g>
		<g>
			<path class="st16" d="M1083.1,1651.9c0,25.2-20.5,45.7-45.7,45.7s-45.7-20.5-45.7-45.7c0-25.2,20.5-45.7,45.7-45.7
				C1062.6,1606.2,1083.1,1626.7,1083.1,1651.9z"/>
			<path class="st17" d="M1070.6,1620.6c0.6,2.9,0.9,5.8,0.9,8.9c0,25.2-20.5,45.7-45.7,45.7c-13.1,0-24.9-5.5-33.2-14.4
				c4.1,21,22.6,36.9,44.8,36.9c25.2,0,45.7-20.5,45.7-45.7C1083.1,1639.8,1078.3,1628.8,1070.6,1620.6z"/>
			<path class="st18" d="M1006.8,1637.7c2.8,6.1,13.1,7.3,22.9,2.7c9.9-4.5,15.6-13.1,12.8-19.2c-2.8-6.1-13.1-7.3-22.9-2.7
				C1009.8,1623,1004,1631.6,1006.8,1637.7z"/>
		</g>
		<g>
			<path class="st16" d="M906.9,1710.7c0,25.2-20.5,45.7-45.7,45.7c-25.2,0-45.7-20.5-45.7-45.7c0-25.2,20.5-45.7,45.7-45.7
				C886.4,1665,906.9,1685.5,906.9,1710.7z"/>
			<path class="st17" d="M894.4,1679.4c0.6,2.9,0.9,5.8,0.9,8.9c0,25.2-20.5,45.7-45.7,45.7c-13.1,0-24.9-5.5-33.2-14.4
				c4.1,21,22.6,36.9,44.8,36.9c25.2,0,45.7-20.5,45.7-45.7C906.9,1698.6,902.2,1687.5,894.4,1679.4z"/>
			<path class="st18" d="M830.7,1696.4c2.8,6.1,13.1,7.3,22.9,2.7c9.9-4.5,15.6-13.1,12.8-19.2c-2.8-6.1-13.1-7.3-22.9-2.7
				C833.6,1681.8,827.9,1690.4,830.7,1696.4z"/>
		</g>
		<g>
			<path class="st16" d="M975.5,1649.3c0,25.2-20.5,45.7-45.7,45.7c-25.2,0-45.7-20.5-45.7-45.7c0-25.2,20.5-45.7,45.7-45.7
				C955.1,1603.6,975.6,1624.1,975.5,1649.3z"/>
			<path class="st17" d="M963.1,1618c0.6,2.9,0.9,5.8,0.9,8.9c0,25.2-20.5,45.7-45.7,45.7c-13.1,0-24.9-5.5-33.2-14.4
				c4.1,21,22.6,36.9,44.8,36.9c25.2,0,45.7-20.5,45.7-45.7C975.6,1637.2,970.8,1626.2,963.1,1618z"/>
			<path class="st18" d="M899.3,1635.1c2.8,6.1,13.1,7.3,22.9,2.7c9.9-4.5,15.6-13.1,12.8-19.2c-2.8-6.1-13-7.3-22.9-2.7
				C902.2,1620.4,896.5,1629,899.3,1635.1z"/>
		</g>
		<g>
			<path class="st16" d="M1238.4,1651.9c0,25.2-20.5,45.7-45.7,45.7s-45.7-20.5-45.7-45.7c0-25.2,20.5-45.7,45.7-45.7
				C1217.9,1606.2,1238.4,1626.7,1238.4,1651.9z"/>
			<path class="st17" d="M1225.9,1620.6c0.6,2.9,0.9,5.8,0.9,8.9c0,25.2-20.5,45.7-45.7,45.7c-13.1,0-24.9-5.5-33.2-14.4
				c4.1,21,22.6,36.9,44.8,36.9c25.2,0,45.7-20.5,45.7-45.7C1238.4,1639.8,1233.6,1628.8,1225.9,1620.6z"/>
			<path class="st18" d="M1162.1,1637.7c2.8,6.1,13.1,7.3,22.9,2.7c9.9-4.5,15.6-13.1,12.8-19.2c-2.8-6.1-13-7.3-22.9-2.7
				C1165.1,1623,1159.3,1631.6,1162.1,1637.7z"/>
		</g>
		<g>
			<path class="st16" d="M1161.2,1603.6c0,25.2-20.5,45.7-45.7,45.7c-25.2,0-45.7-20.5-45.7-45.7c0-25.2,20.5-45.7,45.7-45.7
				C1140.7,1557.9,1161.2,1578.4,1161.2,1603.6z"/>
			<path class="st17" d="M1148.7,1572.3c0.6,2.9,0.9,5.8,0.9,8.9c0,25.2-20.5,45.7-45.7,45.7c-13.1,0-24.9-5.5-33.2-14.3
				c4.1,21,22.6,36.9,44.8,36.9c25.2,0,45.7-20.5,45.7-45.7C1161.2,1591.5,1156.5,1580.4,1148.7,1572.3z"/>
			<path class="st18" d="M1085,1589.3c2.8,6.1,13.1,7.3,22.9,2.7c9.9-4.5,15.6-13.1,12.8-19.2c-2.8-6.1-13-7.3-22.9-2.7
				S1082.2,1583.3,1085,1589.3z"/>
		</g>
		<path class="st19" d="M1023.6,1401.9c-137.5,0-249-9.9-249-22.2l50.2,414.3c0,0,38.2,66,198.8,70.5
			c160.7-4.5,198.8-70.5,198.8-70.5l50.2-414.3C1272.5,1392,1161.1,1401.9,1023.6,1401.9z"/>
		<g class="st12">
			<path class="st0" d="M840,1726.2L804,1314.4c-1.8-20.5,13.4-38.6,33.9-40.4h0c20.5-1.8,38.6,13.4,40.4,33.9l36.1,411.8
				c1.8,20.5-13.2,38.6-33.7,40.4l-0.2,0C859.9,1761.9,841.8,1746.8,840,1726.2z"/>
		</g>
		<path class="st9" d="M1019,1142.2c-15-0.3-29.6-1.1-43.8-2.2l-33.3,401.7c-1.5,18.4,12.1,34.5,30.5,36l16.1,1.3
			c18.4,1.5,34.5-12.1,36-30.5l33.8-408.2C1045.5,1141.3,1032.4,1141.9,1019,1142.2z"/>
		<path class="st10" d="M1010.5,875.7l-52.1,652.6c-0.6,7.2,4.8,13.5,12,14.1h0c7.2,0.6,13.5-4.8,14.1-12l52.2-653.6
			C1027.8,876.6,1019.1,876.2,1010.5,875.7z"/>
		<path class="st15" d="M941.8,1368.1l14,2.7c0,0,41.9,26.2,85.2,2.7l-2.7,28.4l-87.4-1L941.8,1368.1z"/>
		<path class="st20" d="M1119.5,843.3c0,18.3-40.9,33.1-91.3,33.1c-50.4,0-91.3-14.8-91.3-33.1c0-18.3,40.9-33.1,91.3-33.1
			C1078.7,810.3,1119.5,825.1,1119.5,843.3z"/>
		<path class="st20" d="M1028.3,824.5c43.7,0,80.2,11.1,89.2,26c1.4-2.3,2.1-4.7,2.1-7.1c0-18.3-40.9-33.1-91.3-33.1
			c-50.4,0-91.3,14.8-91.3,33.1c0,2.4,0.7,4.8,2.1,7.1C948.1,835.6,984.6,824.5,1028.3,824.5z"/>
		<path class="st7" d="M1028.3,876.4c19.4,0,37.3-2.2,52.1-5.9l26.8-323.3l-82.6-6.8l0,0l-27.7,334
			C1006.7,875.7,1017.2,876.4,1028.3,876.4z"/>
		<path class="st10" d="M1028.3,876.4c0,0,3.4,1.3,9.7,3.7l23.7-285.7c0.6-7.2-4.8-13.5-12-14.1l0,0c-7.2-0.6-13.5,4.8-14.1,12
			L1012,875.9C1017.3,876.2,1022.7,876.4,1028.3,876.4z"/>
		<path class="st8" d="M1107.1,547.3c-0.4,5-19.2,7.6-42.1,5.7c-22.8-1.9-41-7.5-40.5-12.5c0.4-5,19.2-7.6,42.1-5.7
			C1089.4,536.7,1107.6,542.3,1107.1,547.3z"/>
		<path class="st21" d="M1066.6,534.8c-22.8-1.9-41.6,0.7-42.1,5.7c-0.1,0.9,0.5,1.9,1.6,2.9c6.7-2.7,21.4-3.7,38.2-2.3
			c18.5,1.5,34,5.5,38.9,9.7c2.3-0.9,3.7-2.1,3.8-3.4C1107.6,542.3,1089.4,536.7,1066.6,534.8z"/>
	</g>
	
		<ellipse transform="matrix(0.7071 -0.7071 0.7071 0.7071 -737.4526 1158.527)" class="st1" cx="1029.7" cy="1469.4" rx="160" ry="160"/>
	<g>
		<path class="st0" d="M1029.7,1613.6c-79.5,0-144.1-64.7-144.1-144.1s64.7-144.1,144.1-144.1c79.5,0,144.1,64.7,144.1,144.1
			S1109.2,1613.6,1029.7,1613.6z M1029.7,1331.4c-76.1,0-138,61.9-138,138c0,76.1,61.9,138,138,138c76.1,0,138-61.9,138-138
			C1167.7,1393.4,1105.8,1331.4,1029.7,1331.4z"/>
	</g>
	<path class="st22" d="M1078.7,1317.1c23,27.7,36.8,63.3,36.8,102.1c0,88.4-71.6,160-160,160c-17.1,0-33.5-2.7-48.9-7.6
		c29.3,35.4,73.6,57.9,123.2,57.9c88.4,0,160-71.6,160-160C1189.7,1398.2,1143.1,1337.8,1078.7,1317.1z"/>
	<g>
		<polygon class="st23" points="1253.6,989.9 1253.6,999.5 1275.4,1005.2 1276,984 		"/>
		<path class="st16" d="M1085.2,557.6c0,0-7.5-38.8,14.4-52.4c21.9-13.6,44.4-11.2,59.4-2c15.1,9.2,23.1,39.6,15.6,56.6l-50.4-18.3
			L1085.2,557.6z"/>
		<path class="st23" d="M1303,987.9v11.5c0,0,20.9,6.3,20.9,6.3c-0.1,0,1.7-18.9,1.7-18.9L1303,987.9z"/>
		<g>
			<path class="st0" d="M1338.3,1035.9l-46.7-18c-0.8-0.3-1.2-1.2-0.9-2.1l0.8-2c0.3-0.8,1.2-1.2,2.1-0.9l46.7,18
				c0.8,0.3,1.2,1.2,0.9,2.1l-0.8,2C1340,1035.8,1339.1,1036.2,1338.3,1035.9z"/>
			<path class="st24" d="M1300.2,998l-7,13.3c-0.9,1.6-0.5,3.6,0.8,4l43.7,16.9c1.1,0.4,2.5,0.2,3.6-0.9c1.1-1.1,2.1-3.1,1.2-6.7
				c-1.8-7-14.1-13.4-18.6-20.5l-20.4-7.9C1302.4,995.7,1301,996.5,1300.2,998z"/>
			<g>
				<path class="st0" d="M1317.7,1010.9L1317.7,1010.9c-0.2-0.3-0.2-0.9,0.2-1.2c1.6-1.6,6.1-5.2,11.2-2.1c0.3,0.2,0.3,0.7,0.1,1.1
					l0,0c-0.2,0.4-0.6,0.6-0.9,0.4c-4.6-2.7-8.4,0.5-9.7,1.8C1318.3,1011.2,1317.9,1011.2,1317.7,1010.9z"/>
			</g>
			<g>
				<path class="st0" d="M1321.5,1014.5L1321.5,1014.5c-0.2-0.3-0.2-0.9,0.2-1.2c1.6-1.6,6.1-5.2,11.2-2.1c0.3,0.2,0.3,0.7,0.1,1.1
					l0,0c-0.2,0.4-0.6,0.6-0.9,0.4c-4.6-2.7-8.4,0.5-9.7,1.8C1322.1,1014.7,1321.7,1014.7,1321.5,1014.5z"/>
			</g>
			<g>
				<path class="st0" d="M1325.1,1017.8L1325.1,1017.8c-0.2-0.3-0.2-0.9,0.2-1.2c1.6-1.6,6.1-5.2,11.2-2.1c0.3,0.2,0.3,0.7,0.1,1.1
					l0,0c-0.2,0.4-0.6,0.6-0.9,0.4c-4.6-2.7-8.4,0.5-9.7,1.8C1325.7,1018,1325.3,1018,1325.1,1017.8z"/>
			</g>
			<path class="st25" d="M1305.6,1019.8c0.9-12.6-4.6-16.1-7.9-17.1l-4.5,8.5c-0.9,1.6-0.5,3.6,0.8,4L1305.6,1019.8z"/>
		</g>
		<g>
			<path class="st0" d="M1291.9,1036l-47.8-14.7c-0.8-0.3-1.3-1.1-1.1-2l0.6-2.1c0.3-0.8,1.1-1.3,2-1.1l47.8,14.7
				c0.8,0.3,1.3,1.1,1.1,2l-0.6,2.1C1293.7,1035.7,1292.8,1036.2,1291.9,1036z"/>
			<path class="st24" d="M1251.3,1000.8l-6.1,13.7c-0.7,1.7-0.3,3.6,1,4l44.8,13.8c1.2,0.4,2.5,0,3.6-1.2c1.1-1.2,1.8-3.3,0.7-6.7
				c-2.3-6.9-15-12.3-20-19.2l-20.9-6.4C1253.4,998.4,1252,999.3,1251.3,1000.8z"/>
			<g>
				<path class="st0" d="M1269.7,1012.5L1269.7,1012.5c-0.3-0.3-0.2-0.9,0.1-1.2c1.5-1.7,5.7-5.6,11-2.9c0.3,0.2,0.4,0.7,0.2,1.1
					l0,0c-0.2,0.4-0.6,0.6-0.9,0.5c-4.8-2.4-8.4,1.1-9.6,2.5C1270.2,1012.7,1269.9,1012.7,1269.7,1012.5z"/>
			</g>
			<g>
				<path class="st0" d="M1273.8,1015.8L1273.8,1015.8c-0.3-0.3-0.2-0.9,0.1-1.2c1.5-1.7,5.7-5.6,11-2.9c0.3,0.2,0.4,0.7,0.2,1.1
					l0,0c-0.2,0.4-0.6,0.6-0.9,0.5c-4.8-2.4-8.4,1.1-9.6,2.5C1274.3,1016,1274,1016,1273.8,1015.8z"/>
			</g>
			<g>
				<path class="st0" d="M1277.6,1018.8L1277.6,1018.8c-0.3-0.3-0.2-0.9,0.1-1.2c1.5-1.7,5.7-5.6,11-2.9c0.3,0.2,0.4,0.7,0.2,1.1
					l0,0c-0.2,0.4-0.6,0.6-0.9,0.5c-4.8-2.4-8.4,1.1-9.6,2.5C1278.1,1019,1277.8,1019.1,1277.6,1018.8z"/>
			</g>
			<path class="st25" d="M1258.2,1022.2c0-12.6-5.7-15.7-9.1-16.5l-3.9,8.8c-0.7,1.7-0.3,3.6,1,4L1258.2,1022.2z"/>
		</g>
		<polygon class="st23" points="1108.3,592.9 1104.6,636.2 1142.8,634.4 1138.4,596 		"/>
		<path class="st26" d="M1140.5,614.3l-2.1-18.2l-30.2-3.1l-1.3,15C1113,613.9,1123.8,620.1,1140.5,614.3z"/>
		<path class="st26" d="M1164,563.7c-2.3,4.8-1.1,10.1,2.7,11.9c3.8,1.8,8.8-0.5,11-5.3c2.3-4.8,1.1-10.1-2.7-11.9
			C1171.2,556.6,1166.3,558.9,1164,563.7z"/>
		<path class="st23" d="M1164.3,585.7c2.7-6.1,4.3-12.7,5.3-18.5c0.2-1.2,0.5-2.5,0.8-3.7c1.2-4.9,1.5-10.2,0.7-15.7
			c-2.7-17.7-16.9-31.9-34.7-34.3c-23.9-3.3-45,14.4-46.5,37.9c-2.5-1.6-5.3-2.1-7.9-1.1c-5,1.9-7.1,8.4-4.8,14.6
			c2.3,6.2,8.2,9.8,13.2,7.9c0.7-0.3,1.3-0.6,1.9-1c0.8,20.1,16.1,36.5,35.8,37.5C1142.9,609.8,1157.7,601.2,1164.3,585.7z"/>
		<path class="st26" d="M1139.7,554.1c0.1,2.3,0.1,4.6,0.2,6.9c0.1,2.2,0.4,4.5,1.3,6.1c0.9,1.3,1.6,2,1.6,3.6
			c0.1,1.5-0.8,2.9-1.8,3.8c-2.1,1.8-4.8,1.9-7,1.4c2.3-0.4,4.5-1.2,5.7-2.7c0.6-0.7,1-1.6,0.8-2.3c-0.1-1-0.7-1.5-1.4-2.5
			c-0.7-1.2-1-2.5-1.1-3.7c-0.1-1.2-0.1-2.4,0-3.6C1138.4,558.5,1138.9,556.3,1139.7,554.1z"/>
		<path class="st24" d="M1126.2,557.2c-0.1,2-1.8,3.5-3.7,3.4c-2-0.1-3.5-1.8-3.4-3.7c0.1-2,1.8-3.5,3.7-3.4
			S1126.3,555.2,1126.2,557.2z"/>
		<path class="st24" d="M1156.7,560.6c-0.1,2-1.8,3.5-3.7,3.4c-2-0.1-3.5-1.8-3.4-3.7c0.1-2,1.8-3.5,3.7-3.4
			C1155.3,557,1156.8,558.6,1156.7,560.6z"/>
		<path class="st16" d="M1130.7,549.1c-1.8-0.6-3.5-1-5.2-1.3c-1.7-0.3-3.3-0.3-5-0.1c-1.6,0.2-3.2,0.6-4.8,1.3
			c-0.8,0.3-1.5,0.7-2.4,1.1c-0.8,0.4-1.5,0.9-2.4,1.3c0.4-0.8,1-1.6,1.6-2.4c0.7-0.7,1.3-1.4,2.2-1.9c1.6-1.2,3.5-1.9,5.5-2.1
			c2-0.2,4,0.1,5.9,0.8C1127.9,546.5,1129.5,547.6,1130.7,549.1z"/>
		<path class="st16" d="M1146.4,550.9c1.4-1.3,3.3-2,5.2-2.4c1.9-0.4,4-0.3,5.9,0.4c1.9,0.6,3.7,1.7,5,3.2c0.7,0.7,1.2,1.5,1.7,2.3
			c0.5,0.8,0.8,1.7,1.1,2.6c-0.8-0.6-1.4-1.2-2.1-1.8c-0.8-0.5-1.4-1.1-2.1-1.5c-1.4-1-2.9-1.6-4.4-2.2c-1.5-0.5-3.2-0.8-4.9-0.9
			C1150,550.6,1148.3,550.7,1146.4,550.9z"/>
		<path class="st27" d="M1129.3,796.1c0,0-8,54.1,44.3,63.5c52.3,9.4,117.3,6.6,117.3,6.6l9,124.2l27.3,1.4c0,0,70.2-172.6-27-199.6
			l-87.4,0.4l-36-2.6c0,0-36.4-9-36.8-7.3C1139.6,784.5,1130.2,797,1129.3,796.1z"/>
		<path class="st16" d="M1081.3,796.4c0,0-8,54.1,44.3,63.5c52.3,9.4,117.3,6.6,117.3,6.6l9,124.2l27.3,1.4c0,0,70.2-172.6-27-199.6
			l-87.4,0.4l-36-2.6c0,0-36.4-9-36.8-7.3C1091.6,784.8,1082.2,797.2,1081.3,796.4z"/>
		<path class="st14" d="M1147.1,618.9c0,0,35.7,4.9,45.1,12c25.7,19.5,60,161.6,60,161.6l-42.9,0.2l-78.2-1.9
			c0,0-58.2,31.4-94.8,1.7c-36.5-29.7-17.7-133.1,3.4-155.3c21.1-22.3,58.8-21.7,58.8-21.7S1132.8,639.5,1147.1,618.9z"/>
		<path class="st0" d="M1077.4,673.2c1.3,5.9,2.1,12,2.6,18c0.3,3,0.4,6.1,0.6,9.1c0.1,3,0.2,6.1,0.1,9.1
			c-0.1,6.1-0.5,12.2-1.5,18.2c-1,6-2.5,12-5.3,17.5c1.9-5.8,2.8-11.7,3.5-17.7c0.7-6,0.9-12,1-18c0.1-6,0-12.1-0.2-18.1
			C1078,685.3,1077.8,679.2,1077.4,673.2z"/>
		<path class="st0" d="M1185.1,669.2c1.6,8.8,3.4,17.7,5.2,26.5c1.8,8.8,3.7,17.6,5.8,26.3c2.1,8.7,4.4,17.4,7.3,25.8
			c1.4,4.2,3,8.4,4.9,12.5c1.8,4.1,10.6,29,13.5,32.4c-3.3-3.1-12.3-28-14.5-31.9c-2.1-4-4-8.1-5.5-12.4c-1.6-4.2-3-8.5-4.3-12.8
			c-1.3-4.3-2.4-8.7-3.5-13.1c-1-4.4-2-8.8-2.9-13.2c-0.9-4.4-1.7-8.8-2.4-13.3C1187,687.1,1185.8,678.1,1185.1,669.2z"/>
		<path class="st0" d="M1147.5,761.9c-0.3-2.2-0.6-4.3-1.2-6.4l-0.2-0.7l-0.9,0c-6.3-0.4-12.9-0.9-19.3-1.5
			c-6.4-0.6-12.9-1.4-19.3-2.2c-6.4-0.9-12.8-1.9-19.2-3.1c-3.2-0.7-6.4-1.2-9.5-2c-3.2-0.7-6.3-1.5-9.4-2.3
			c3.1,1.1,6.1,2.2,9.3,3.1c3.1,1,6.3,1.8,9.4,2.6c6.3,1.5,12.7,2.7,19.1,3.8c6.4,1,12.9,1.8,19.3,2.5c3.2,0.3,6.5,0.6,9.7,0.8
			c3,0.2,5.9,0.4,8.9,0.5c0.4,1.7,0.8,3.5,1.1,5.3c0.3,2.1,0.5,4.1,0.6,6.2c0.1,2.1-0.1,4.2-0.3,6.2c-0.3,2-0.8,4-1.4,5.9l-6.6,5.1
			c-2.2,1.7-4.5,3.5-6.7,5.2c2.4-1.5,4.7-3.1,7.1-4.7l7.1-4.7l0.1-0.1l0.1-0.2c0.9-2,1.5-4.1,1.9-6.2c0.4-2.1,0.5-4.3,0.6-6.5
			C1147.9,766.3,1147.8,764.1,1147.5,761.9z"/>
		<g>
			<path class="st7" d="M1181.7,766.3l2.1-0.2c0.8-0.1,1.5-0.8,1.4-1.6l-5.2-62.2l-5.1,0.4l5.2,62.2
				C1180.1,765.7,1180.8,766.3,1181.7,766.3z"/>
			<path class="st8" d="M1174.9,702.7c0,0.3,1.2,0.5,2.6,0.3c1.4-0.1,2.5-0.5,2.5-0.8c0-0.3-1.2-0.5-2.6-0.3
				C1176,702.1,1174.9,702.4,1174.9,702.7z"/>
			<path class="st9" d="M1180.3,739.3c0.9,0,1.8-0.1,2.7-0.1l2,24.7c0.1,1.1-0.7,2.1-1.9,2.2l-1,0.1c-1.1,0.1-2.1-0.7-2.2-1.9
				l-2.1-25.1C1178.7,739.3,1179.5,739.3,1180.3,739.3z"/>
			<path class="st10" d="M1182.1,739.3l2,23.8c0,0.4-0.3,0.8-0.7,0.9l0,0c-0.4,0-0.8-0.3-0.9-0.7l-2-23.9
				C1181,739.3,1181.5,739.3,1182.1,739.3z"/>
			<path class="st11" d="M1161.8,735.2c0,0,7.8,3.9,18.5,4.2c10.7-0.2,18.5-4.2,18.5-4.2s5.3,2.5,0,7.7c-3.7,3.7-13.3,4.1-18.5,4
				c-5.2,0.1-14.8-0.3-18.5-4C1156.5,737.6,1161.8,735.2,1161.8,735.2z"/>
			<path class="st11" d="M1161.8,742.9c3.7,3.7,13.3,4.1,18.5,4c5.2,0.1,14.8-0.3,18.5-4c0,0,0,0,0,0l-5.3,38.3
				c0,0-2.5,3.9-13.3,4.2c-10.7-0.3-13.3-4.2-13.3-4.2L1161.8,742.9C1161.8,742.9,1161.8,742.9,1161.8,742.9z"/>
			<g class="st12">
				<path class="st0" d="M1170.4,742.5c-4.5-0.4-7.7-2.3-9.3-3.4c-0.6-0.4-0.6-1.2-0.2-1.7l0,0c0.4-0.4,1-0.5,1.5-0.2
					c1.3,0.9,4.2,2.6,8.2,3c0.6,0.1,1.1,0.6,1,1.2l0,0C1171.7,742.1,1171.1,742.6,1170.4,742.5z"/>
			</g>
			<path class="st11" d="M1180.3,717.1c16.9,0.2,18.5,18,18.5,18s-7.8,3.9-18.5,4.2c-10.7-0.2-18.5-4.2-18.5-4.2
				S1163.4,717.3,1180.3,717.1z"/>
			<g class="st12">
				<path class="st0" d="M1194.7,734L1194.7,734c0.9-0.1,1.6-1,1.4-1.9c-0.9-4.4-2.9-7.1-4.5-8.7c-0.8-0.8-1.6-1.3-2.2-1.7
					c-0.9-0.5-2-0.1-2.4,0.9l0,0c-0.2,0.7,0.1,1.5,0.7,1.9c0.5,0.3,1.1,0.8,1.8,1.4c1.7,1.7,2.9,4,3.5,6.9
					C1193.1,733.6,1193.8,734.2,1194.7,734z"/>
			</g>
			<path class="st13" d="M1198.8,735.2c-1.5,0.6-3,1.1-4.5,1.5c-0.8,0.2-1.5,0.4-2.3,0.6l-1.2,0.3l-1.2,0.2
				c-0.4,0.1-0.8,0.2-1.2,0.2l-0.6,0.1l-0.3,0.1l-0.3,0l-1.2,0.2c-0.1,0-0.2,0-0.3,0l-0.3,0l-0.6,0.1l-0.6,0.1l-0.3,0l-0.3,0
				l-1.2,0.1c-0.4,0-0.8,0-1.2,0.1l-1.2,0l-1.2,0c-0.4,0-0.8,0-1.2-0.1l-1.2-0.1l-0.3,0l-0.3,0l-0.6-0.1l-0.6-0.1l-0.3,0
				c-0.1,0-0.2,0-0.3,0l-1.2-0.2l-0.3,0l-0.3-0.1l-0.6-0.1c-0.4-0.1-0.8-0.1-1.2-0.2l-1.2-0.2l-1.2-0.3c-0.8-0.2-1.5-0.4-2.3-0.6
				c-1.5-0.4-3-0.9-4.5-1.5c1.4,0.8,2.9,1.4,4.4,2c1.5,0.5,3,1,4.6,1.4c1.6,0.4,3.1,0.7,4.7,0.9l0.6,0.1l0.3,0l0.3,0l1.2,0.1
				c0.4,0,0.8,0.1,1.2,0.1l1.2,0.1l1.2-0.1c0.4,0,0.8,0,1.2-0.1l1.2-0.1l0.3,0l0.3,0l0.6-0.1c1.6-0.2,3.2-0.5,4.7-0.9
				c1.6-0.4,3.1-0.9,4.6-1.4C1196,736.6,1197.4,735.9,1198.8,735.2z"/>
			<path class="st13" d="M1198.8,742.8c-1.5,0.6-3,1.1-4.5,1.5c-0.8,0.2-1.5,0.4-2.3,0.6l-1.2,0.3l-1.2,0.2
				c-0.4,0.1-0.8,0.2-1.2,0.2l-0.6,0.1l-0.3,0.1l-0.3,0l-1.2,0.2c-0.1,0-0.2,0-0.3,0l-0.3,0l-0.6,0.1l-0.6,0.1l-0.3,0l-0.3,0
				l-1.2,0.1c-0.4,0-0.8,0-1.2,0.1l-1.2,0l-1.2,0c-0.4,0-0.8,0-1.2-0.1l-1.2-0.1l-0.3,0l-0.3,0l-0.6-0.1l-0.6-0.1l-0.3,0
				c-0.1,0-0.2,0-0.3,0l-1.2-0.2l-0.3,0l-0.3-0.1l-0.6-0.1c-0.4-0.1-0.8-0.1-1.2-0.2l-1.2-0.2l-1.2-0.3c-0.8-0.2-1.5-0.4-2.3-0.6
				c-1.5-0.4-3-0.9-4.5-1.5c1.4,0.8,2.9,1.4,4.4,2c1.5,0.5,3,1,4.6,1.4c1.6,0.4,3.1,0.7,4.7,0.9l0.6,0.1l0.3,0l0.3,0l1.2,0.1
				c0.4,0,0.8,0.1,1.2,0.1l1.2,0.1l1.2-0.1c0.4,0,0.8,0,1.2-0.1l1.2-0.1l0.3,0l0.3,0l0.6-0.1c1.6-0.2,3.2-0.5,4.7-0.9
				c1.6-0.4,3.1-0.9,4.6-1.4C1196,744.2,1197.4,743.6,1198.8,742.8z"/>
			<path class="st14" d="M1181.3,753.9h14l-3.1,25.5c0,0-2.3,4.1-12.2,4.3c-9.9-0.3-12.2-4.3-12.2-4.3l-3.1-25.5H1181.3z"/>
			<path class="st15" d="M1164.7,753.9c0,0.8,6.9,1.4,15.3,1.4c8.5,0,15.3-0.6,15.3-1.4s-6.9-1.4-15.3-1.4
				C1171.6,752.6,1164.7,753.2,1164.7,753.9z"/>
			<g>
				<path class="st16" d="M1173.4,779.2c-0.5,1.5,0.2,3.1,1.7,3.6c1.5,0.5,3.1-0.2,3.6-1.7c0.5-1.5-0.2-3.1-1.7-3.6
					C1175.5,777,1173.9,777.8,1173.4,779.2z"/>
				<path class="st17" d="M1174.7,777.7c-0.1,0.2-0.2,0.3-0.2,0.5c-0.5,1.5,0.2,3.1,1.7,3.6c0.8,0.3,1.6,0.2,2.2-0.1
					c-0.7,1.1-2.1,1.7-3.4,1.2c-1.5-0.5-2.2-2.1-1.7-3.6C1173.6,778.5,1174.1,778,1174.7,777.7z"/>
				<path class="st18" d="M1178.1,780c-0.3,0.3-0.9,0.2-1.4-0.3s-0.6-1.1-0.3-1.4c0.3-0.3,0.9-0.2,1.4,0.3
					C1178.2,779.1,1178.3,779.7,1178.1,780z"/>
			</g>
			<g>
				<path class="st16" d="M1178.8,780.5c0,1.6,1.3,2.8,2.8,2.8c1.6,0,2.8-1.3,2.8-2.8c0-1.6-1.3-2.8-2.8-2.8
					C1180.1,777.7,1178.8,778.9,1178.8,780.5z"/>
				<path class="st17" d="M1179.6,778.5c0,0.2-0.1,0.4-0.1,0.5c0,1.6,1.3,2.8,2.8,2.8c0.8,0,1.5-0.3,2-0.9c-0.3,1.3-1.4,2.3-2.8,2.3
					c-1.6,0-2.8-1.3-2.8-2.8C1178.8,779.7,1179.1,779,1179.6,778.5z"/>
				<path class="st18" d="M1183.5,779.6c-0.2,0.4-0.8,0.4-1.4,0.2c-0.6-0.3-1-0.8-0.8-1.2c0.2-0.4,0.8-0.4,1.4-0.2
					C1183.3,778.7,1183.7,779.2,1183.5,779.6z"/>
			</g>
			<g>
				<path class="st16" d="M1168.6,778.5c0,1.6,1.3,2.8,2.8,2.8c1.6,0,2.8-1.3,2.8-2.8s-1.3-2.8-2.8-2.8
					C1169.8,775.7,1168.6,777,1168.6,778.5z"/>
				<path class="st17" d="M1169.4,776.6c0,0.2-0.1,0.4-0.1,0.5c0,1.6,1.3,2.8,2.8,2.8c0.8,0,1.5-0.3,2-0.9c-0.3,1.3-1.4,2.3-2.8,2.3
					c-1.6,0-2.8-1.3-2.8-2.8C1168.6,777.8,1168.9,777.1,1169.4,776.6z"/>
				<path class="st18" d="M1173.3,777.7c-0.2,0.4-0.8,0.4-1.4,0.2c-0.6-0.3-1-0.8-0.8-1.2c0.2-0.4,0.8-0.4,1.4-0.2
					C1173.1,776.8,1173.5,777.3,1173.3,777.7z"/>
			</g>
			<g>
				<path class="st16" d="M1176.4,776.3c0,1.6,1.3,2.8,2.8,2.8c1.6,0,2.8-1.3,2.8-2.8c0-1.6-1.3-2.8-2.8-2.8
					C1177.6,773.5,1176.4,774.8,1176.4,776.3z"/>
				<path class="st17" d="M1177.1,774.4c0,0.2-0.1,0.4-0.1,0.5c0,1.6,1.3,2.8,2.8,2.8c0.8,0,1.5-0.3,2-0.9c-0.3,1.3-1.4,2.3-2.8,2.3
					c-1.6,0-2.8-1.3-2.8-2.8C1176.4,775.6,1176.7,774.9,1177.1,774.4z"/>
				<path class="st18" d="M1181.1,775.4c-0.2,0.4-0.8,0.4-1.4,0.2c-0.6-0.3-1-0.8-0.8-1.2c0.2-0.4,0.8-0.4,1.4-0.2
					C1180.9,774.5,1181.2,775.1,1181.1,775.4z"/>
			</g>
			<g>
				<circle class="st16" cx="1187.3" cy="779.1" r="2.8"/>
				<path class="st17" d="M1185.3,777.2c0,0.2-0.1,0.4-0.1,0.5c0,1.6,1.3,2.8,2.8,2.8c0.8,0,1.5-0.3,2-0.9c-0.3,1.3-1.4,2.3-2.8,2.3
					c-1.6,0-2.8-1.3-2.8-2.8C1184.5,778.4,1184.8,777.7,1185.3,777.2z"/>
				<path class="st18" d="M1189.2,778.2c-0.2,0.4-0.8,0.4-1.4,0.2c-0.6-0.3-1-0.8-0.8-1.2c0.2-0.4,0.8-0.4,1.4-0.2
					C1189,777.3,1189.4,777.9,1189.2,778.2z"/>
			</g>
			<g>
				<path class="st16" d="M1181.1,775.8c0,1.6,1.3,2.8,2.8,2.8c1.6,0,2.8-1.3,2.8-2.8c0-1.6-1.3-2.8-2.8-2.8
					S1181.1,774.3,1181.1,775.8z"/>
				<path class="st17" d="M1181.9,773.9c0,0.2-0.1,0.4-0.1,0.5c0,1.6,1.3,2.8,2.8,2.8c0.8,0,1.5-0.3,2-0.9c-0.3,1.3-1.4,2.3-2.8,2.3
					c-1.6,0-2.8-1.3-2.8-2.8C1181.1,775.1,1181.4,774.4,1181.9,773.9z"/>
				<path class="st18" d="M1185.8,774.9c-0.2,0.4-0.8,0.4-1.4,0.2c-0.6-0.3-1-0.8-0.8-1.2c0.2-0.4,0.8-0.4,1.4-0.2
					C1185.6,774,1186,774.6,1185.8,774.9z"/>
			</g>
			<g>
				<path class="st16" d="M1171.4,773.9c0,1.6,1.3,2.8,2.8,2.8c1.6,0,2.8-1.3,2.8-2.8c0-1.6-1.3-2.8-2.8-2.8
					C1172.7,771.1,1171.4,772.3,1171.4,773.9z"/>
				<path class="st17" d="M1172.2,771.9c0,0.2-0.1,0.4-0.1,0.5c0,1.6,1.3,2.8,2.8,2.8c0.8,0,1.5-0.3,2-0.9c-0.3,1.3-1.4,2.3-2.8,2.3
					c-1.6,0-2.8-1.3-2.8-2.8C1171.4,773.1,1171.7,772.4,1172.2,771.9z"/>
				<path class="st18" d="M1176.1,773c-0.2,0.4-0.8,0.4-1.4,0.2c-0.6-0.3-1-0.8-0.8-1.2c0.2-0.4,0.8-0.4,1.4-0.2
					C1175.9,772.1,1176.3,772.6,1176.1,773z"/>
			</g>
			<g>
				<path class="st16" d="M1176.4,770.7c0,1.6,1.3,2.8,2.8,2.8c1.6,0,2.8-1.3,2.8-2.8c0-1.6-1.3-2.8-2.8-2.8
					C1177.6,767.9,1176.4,769.1,1176.4,770.7z"/>
				<path class="st17" d="M1177.1,768.8c0,0.2-0.1,0.4-0.1,0.5c0,1.6,1.3,2.8,2.8,2.8c0.8,0,1.5-0.3,2-0.9c-0.3,1.3-1.4,2.3-2.8,2.3
					c-1.6,0-2.8-1.3-2.8-2.8C1176.4,769.9,1176.7,769.3,1177.1,768.8z"/>
				<path class="st18" d="M1181.1,769.8c-0.2,0.4-0.8,0.4-1.4,0.2c-0.6-0.3-1-0.8-0.8-1.2c0.2-0.4,0.8-0.4,1.4-0.2
					C1180.9,768.9,1181.2,769.4,1181.1,769.8z"/>
			</g>
			<g>
				<path class="st16" d="M1187.2,774.3c0,1.6,1.3,2.8,2.8,2.8c1.6,0,2.8-1.3,2.8-2.8c0-1.6-1.3-2.8-2.8-2.8
					C1188.5,771.5,1187.2,772.7,1187.2,774.3z"/>
				<path class="st17" d="M1188,772.4c0,0.2-0.1,0.4-0.1,0.5c0,1.6,1.3,2.8,2.8,2.8c0.8,0,1.5-0.3,2-0.9c-0.3,1.3-1.4,2.3-2.8,2.3
					c-1.6,0-2.8-1.3-2.8-2.8C1187.2,773.6,1187.5,772.9,1188,772.4z"/>
				<path class="st18" d="M1191.9,773.4c-0.2,0.4-0.8,0.4-1.4,0.2c-0.6-0.3-1-0.8-0.8-1.2c0.2-0.4,0.8-0.4,1.4-0.2
					S1192.1,773.1,1191.9,773.4z"/>
			</g>
			<g>
				<circle class="st16" cx="1185.8" cy="770.5" r="2.8"/>
				<path class="st17" d="M1183.8,768.6c0,0.2-0.1,0.4-0.1,0.5c0,1.6,1.3,2.8,2.8,2.8c0.8,0,1.5-0.3,2-0.9c-0.3,1.3-1.4,2.3-2.8,2.3
					c-1.6,0-2.8-1.3-2.8-2.8C1183,769.8,1183.3,769.1,1183.8,768.6z"/>
				<path class="st18" d="M1187.7,769.6c-0.2,0.4-0.8,0.4-1.4,0.2c-0.6-0.3-1-0.8-0.8-1.2c0.2-0.4,0.8-0.4,1.4-0.2
					C1187.5,768.7,1187.8,769.3,1187.7,769.6z"/>
			</g>
			<g>
				<path class="st16" d="M1166.8,770.7c0,1.6,1.3,2.8,2.8,2.8c1.6,0,2.8-1.3,2.8-2.8c0-1.6-1.3-2.8-2.8-2.8
					S1166.8,769.1,1166.8,770.7z"/>
				<path class="st17" d="M1167.6,768.8c0,0.2-0.1,0.4-0.1,0.5c0,1.6,1.3,2.8,2.8,2.8c0.8,0,1.5-0.3,2-0.9c-0.3,1.3-1.4,2.3-2.8,2.3
					c-1.6,0-2.8-1.3-2.8-2.8C1166.8,769.9,1167.1,769.3,1167.6,768.8z"/>
				<path class="st18" d="M1171.5,769.8c-0.2,0.4-0.8,0.4-1.4,0.2c-0.6-0.3-1-0.8-0.8-1.2c0.2-0.4,0.8-0.4,1.4-0.2
					C1171.3,768.9,1171.7,769.4,1171.5,769.8z"/>
			</g>
			<g>
				<path class="st16" d="M1171.6,767.7c0,1.6,1.3,2.8,2.8,2.8c1.6,0,2.8-1.3,2.8-2.8c0-1.6-1.3-2.8-2.8-2.8
					C1172.8,764.9,1171.6,766.2,1171.6,767.7z"/>
				<path class="st17" d="M1172.3,765.8c0,0.2-0.1,0.4-0.1,0.5c0,1.6,1.3,2.8,2.8,2.8c0.8,0,1.5-0.3,2-0.9c-0.3,1.3-1.4,2.3-2.8,2.3
					c-1.6,0-2.8-1.3-2.8-2.8C1171.6,767,1171.9,766.3,1172.3,765.8z"/>
				<path class="st18" d="M1176.3,766.8c-0.2,0.4-0.8,0.4-1.4,0.2c-0.6-0.3-1-0.8-0.8-1.2c0.2-0.4,0.8-0.4,1.4-0.2
					C1176.1,765.9,1176.4,766.5,1176.3,766.8z"/>
			</g>
			<path class="st19" d="M1180,755.3c8.5,0,15.3-0.6,15.3-1.4l-3.1,25.5c0,0-2.3,4.1-12.2,4.3c-9.9-0.3-12.2-4.3-12.2-4.3l-3.1-25.5
				C1164.7,754.7,1171.6,755.3,1180,755.3z"/>
			<g class="st12">
				<path class="st0" d="M1191.3,775.3l2.2-25.3c0.1-1.3-0.8-2.4-2.1-2.5l0,0c-1.3-0.1-2.4,0.8-2.5,2.1l-2.2,25.3
					c-0.1,1.3,0.8,2.4,2.1,2.5l0,0C1190.1,777.5,1191.2,776.5,1191.3,775.3z"/>
			</g>
			<path class="st9" d="M1180.3,739.3c0.9,0,1.8-0.1,2.7-0.1l2,24.7c0.1,1.1-0.7,2.1-1.9,2.2l-1,0.1c-1.1,0.1-2.1-0.7-2.2-1.9
				l-2.1-25.1C1178.7,739.3,1179.5,739.3,1180.3,739.3z"/>
			<path class="st10" d="M1180.8,722.9l3.2,40.1c0,0.4-0.3,0.8-0.7,0.9l0,0c-0.4,0-0.8-0.3-0.9-0.7l-3.2-40.2
				C1179.8,723,1180.3,723,1180.8,722.9z"/>
			<path class="st15" d="M1185.1,753.2l-0.9,0.2c0,0-2.6,1.6-5.2,0.2l0.2,1.7l5.4-0.1L1185.1,753.2z"/>
			<path class="st20" d="M1174.1,720.9c0,1.1,2.5,2,5.6,2s5.6-0.9,5.6-2c0-1.1-2.5-2-5.6-2S1174.1,719.8,1174.1,720.9z"/>
			<path class="st20" d="M1179.7,719.8c-2.7,0-4.9,0.7-5.5,1.6c-0.1-0.1-0.1-0.3-0.1-0.4c0-1.1,2.5-2,5.6-2s5.6,0.9,5.6,2
				c0,0.1,0,0.3-0.1,0.4C1184.7,720.5,1182.4,719.8,1179.7,719.8z"/>
			<path class="st7" d="M1179.7,723c-1.2,0-2.3-0.1-3.2-0.4l-1.6-19.9l5.1-0.4l0,0l1.7,20.5C1181.1,722.9,1180.4,723,1179.7,723z"/>
			<path class="st10" d="M1179.7,723c0,0-0.2,0.1-0.6,0.2l-1.5-17.6c0-0.4,0.3-0.8,0.7-0.9l0,0c0.4,0,0.8,0.3,0.9,0.7l1.4,17.5
				C1180.4,723,1180.1,723,1179.7,723z"/>
			<path class="st8" d="M1174.9,702.7c0,0.3,1.2,0.5,2.6,0.3c1.4-0.1,2.5-0.5,2.5-0.8c0-0.3-1.2-0.5-2.6-0.3
				C1176,702.1,1174.9,702.4,1174.9,702.7z"/>
			<path class="st21" d="M1177.4,702c1.4-0.1,2.6,0,2.6,0.3c0,0.1,0,0.1-0.1,0.2c-0.4-0.2-1.3-0.2-2.4-0.1c-1.1,0.1-2.1,0.3-2.4,0.6
				c-0.1-0.1-0.2-0.1-0.2-0.2C1174.9,702.4,1176,702.1,1177.4,702z"/>
		</g>
		<path class="st23" d="M1191.8,756.9c-0.3-1.6-20.2-2-26.6-2c-0.2,0-0.4-0.1-0.6-0.2l-1.3-0.4l-1.2-8.6
			c-4.8,3.2-10.9,7.4-15.6,10.6c0.4,1.9,0.8,3.8,1,5.7c0.3,2.1,0.4,4.3,0.4,6.5c0,2.2-0.2,4.3-0.6,6.5c-0.3,1.4-0.6,2.7-1.1,4.1
			l10.4,0.7c27.9,0.8,27.9,0.1,28.1-0.9c0.2-1-11.2-4.6-10.5-5.6c0.6-1,17-1.2,16.2-2.4c-0.8-1.2-16-2.8-15.7-3.8
			c0.3-0.9,16.1-0.9,16-3s-17.4-1.6-16.9-3.3C1174.4,758.9,1192.2,758.8,1191.8,756.9z"/>
		<path class="st16" d="M1090.4,551.9c-2.3-2.1-4.1-2-4.1-2l1.5-12.4l4.2-7.3c0,0,15.9-19.6,16.5-20s12.4-6.5,13.1-6.9
			c0.7-0.3,16.8,2.8,16.8,2.8s28.7-4.7,23.3,10c-5.4,14.7-26.5,21.7-27.5,21c3.5-3.2,4.2-12.7,4.2-12.7
			C1123.1,539.7,1094.8,550.3,1090.4,551.9z"/>
		<path class="st0" d="M1147.5,581.5c-1,4.4-5.3,7.7-10.4,7.6c-5.1-0.1-9.3-3.5-10.1-8L1147.5,581.5z"/>
	</g>
	<g>
		<g>
			<path class="st24" d="M700.7,1519.9c0,0,6.9,24.6,2.2,42.7c-4.1,15.6-7.9,42.2,18.1,49.4c26,7.2,50.4-22.2,50.4-23.8
				c0-1.6,5-20.9,0-33.4c-5-12.5-4.3-29.7-18.4-37C738.8,1510.4,700.7,1519.9,700.7,1519.9z"/>
			<path class="st23" d="M474.1,1880.6l20.5-12.7l17.7,10.7l-6.2,4.4l-21.5,3c0,0-8.4-1.1-8.8-1.3
				C475.5,1884.5,474.1,1880.6,474.1,1880.6z"/>
			<path class="st14" d="M474.1,1880.6l-5.2,3.3c-2.4,1.5-1.3,5.2,1.5,5.3l39.3,0.2c1.4,0,2.5-1.1,2.5-2.5l0-8.2
				C486.1,1886.9,477,1884.3,474.1,1880.6z"/>
			<path class="st24" d="M828.8,1531.6c-14.3-15-19.9-29-23.6-42.4c-1.6-5.6-4.6-22.1-20.3-33.5c-22.7-16.5-44.6-17.2-64.9-6.2
				c-23.5,12.8-28.5,47.9-20.9,66l46.2-14.2c-6.9,3.9-11.8,6.7-11.8,6.7c-4.5,88.3,15.5,84.9,24,93.3c8.4,8.4,43.3,8.4,66.6-4
				C861.5,1577.3,846.8,1550.4,828.8,1531.6z"/>
			<path class="st23" d="M574.3,1880.6l20.5-12.7l17.7,10.7l-6.2,4.4l-21.5,3c0,0-8.4-1.1-8.8-1.3
				C575.7,1884.5,574.3,1880.6,574.3,1880.6z"/>
			<path class="st14" d="M574.3,1880.6l-5.2,3.3c-2.4,1.5-1.3,5.2,1.5,5.3l39.3,0.2c1.4,0,2.5-1.1,2.5-2.5l0-8.2
				C586.3,1886.9,577.2,1884.3,574.3,1880.6z"/>
			<path class="st28" d="M753.7,1570.4c0,0-61.1,75.2-71.5,87.2l-61.9-61.1c0,0-12.5,6.9-18.9,14.4c0,0,25,57.7,46.5,72.8l43.1,29
				l-8.2,19.7l15.4,12l8.1-19.4l22.2-49.2l21-65.4l4-32.4L753.7,1570.4z"/>
			<g>
				<path class="st16" d="M651.9,1628.6c0,27.9-22.6,50.5-50.5,50.5c-27.9,0-50.5-22.6-50.5-50.5c0-27.9,22.6-50.5,50.5-50.5
					C629.3,1578.1,651.9,1600.7,651.9,1628.6z"/>
				<path class="st17" d="M638.1,1593.9c0.6,3.2,1,6.4,1,9.8c0,27.9-22.6,50.5-50.5,50.5c-14.5,0-27.5-6.1-36.7-15.8
					c4.6,23.2,25,40.7,49.5,40.7c27.9,0,50.5-22.6,50.5-50.5C651.9,1615.1,646.6,1603,638.1,1593.9z"/>
				<path class="st29" d="M567.7,1612.8c3.1,6.7,14.4,8,25.3,3c10.9-5,17.2-14.5,14.1-21.2c-3.1-6.7-14.4-8-25.3-3
					C571,1596.6,564.6,1606.1,567.7,1612.8z"/>
			</g>
			<polygon class="st30" points="640,1774.9 612.5,1879.7 587.6,1872.2 587.3,1781 623.7,1756 			"/>
			<path class="st31" d="M753.5,1577.9c0,0-25.8,42-31.1,58.2c-5.3,16.2-1.1,17.5-3.5,37.2c-2.4,19.7-20.5,72.3-20.5,72.3l30,20.2
				c0,0,16.2-51.8,16.2-54s15.2-97,15.2-97l12.5-35.4L753.5,1577.9z"/>
			<path class="st24" d="M725.6,1763.7c0,0-51.6-46.3-91.4-55.6c-39.9-9.3-142.8,160.8-142.8,160.8l21.3,10.1
				c0,0,92.8-66.7,110.3-96.5c0,0,75.4,99.4,100.6,101.8c25.3,2.4,53.7-2.9,87.3-43.3C849,1795.3,725.6,1763.7,725.6,1763.7z"/>
			<path class="st23" d="M776.9,1536.9l11.4,30.8c0,0-8.3,18.8-36,11.9c0,0,2.9-6.6-1.8-19.7
				C745.7,1546.5,776.9,1536.9,776.9,1536.9z"/>
			<path class="st32" d="M776.9,1536.9l5.4,14.4c-2.5,10.8-11.5,18.4-29.1,21.3c-0.1-3.2-0.8-7.4-2.6-12.7
				C745.7,1546.5,776.9,1536.9,776.9,1536.9z"/>
			<path class="st0" d="M618.4,1752.4c-0.5,2.5-0.7,5.1-0.7,7.7c0,2.6,0.2,5.2,0.6,7.7c0.4,2.6,1,5.1,1.7,7.6
				c0.7,2.5,1.5,4.9,2.6,7.3l0.6-0.5c-1.4-0.9-2.7-2-4-3.2c-1.3-1.1-2.5-2.3-3.6-3.6c-1.2-1.3-2.3-2.5-3.3-3.9
				c-1.1-1.3-2.1-2.7-3.1-4.1c0.9,1.5,1.8,2.9,2.8,4.3c1,1.4,2.1,2.7,3.2,4c1.1,1.3,2.3,2.6,3.6,3.7c1.3,1.2,2.6,2.3,4,3.3l1.2,0.8
				l-0.6-1.3c-1-2.3-1.8-4.8-2.5-7.2c-0.7-2.5-1.3-4.9-1.7-7.5c-0.4-2.5-0.8-5.1-0.9-7.6C618.1,1757.5,618.1,1755,618.4,1752.4z"/>
			<path class="st26" d="M713.3,1516.4c2.4,5,1.1,10.6-2.9,12.5c-4,1.9-9.2-0.5-11.6-5.5c-2.4-5-1.1-10.6,2.9-12.5
				C705.7,1508.9,710.9,1511.4,713.3,1516.4z"/>
			<path class="st23" d="M713,1539.5c-2.9-6.4-4.6-13.3-5.5-19.4c-0.2-1.3-0.5-2.6-0.8-3.9c-1.2-5.2-1.6-10.7-0.7-16.5
				c2.8-18.6,17.7-33.4,36.4-36c25.1-3.5,47.2,15.1,48.8,39.7c2.6-1.7,5.6-2.2,8.3-1.2c5.2,1.9,7.5,8.8,5,15.3
				c-2.4,6.5-8.6,10.2-13.9,8.3c-0.7-0.3-1.4-0.6-2-1.1c-0.8,21.1-16.9,38.3-37.5,39.3C735.4,1564.8,719.9,1555.7,713,1539.5z"/>
			<path class="st26" d="M738.7,1506.3c0.1,2.4,0.2,4.8,0.1,7.2c-0.1,1.2-0.1,2.4-0.3,3.5c-0.2,1.1-0.5,2.2-1,3.1
				c-0.9,1.2-1.6,2-1.7,3.5c-0.1,1.5,0.7,2.8,1.7,3.7c1,0.9,2.2,1.4,3.5,1.7c1.2,0.2,2.5,0.2,3.7,0c-1.2-0.1-2.4-0.4-3.5-0.8
				c-1.1-0.4-2.1-1-2.8-1.8c-0.7-0.8-1.2-1.8-1.1-2.7c0.2-1.3,0.5-1.4,1.5-2.8c0.7-1.2,1-2.5,1.1-3.7c0.1-1.3,0.1-2.5,0.1-3.7
				C739.9,1511,739.5,1508.6,738.7,1506.3z"/>
			<path class="st24" d="M752.9,1509.5c0.1,2.1,1.8,3.7,3.9,3.6c2.1-0.1,3.7-1.8,3.6-3.9c-0.1-2.1-1.8-3.7-3.9-3.6
				S752.8,1507.5,752.9,1509.5z"/>
			<path class="st24" d="M720.9,1513.2c0.1,2.1,1.8,3.7,3.9,3.6c2.1-0.1,3.7-1.8,3.6-3.9c-0.1-2.1-1.8-3.7-3.9-3.6
				C722.4,1509.3,720.8,1511.1,720.9,1513.2z"/>
			<path class="st24" d="M748.2,1501.1c1.9-0.6,3.7-1,5.5-1.3c1.8-0.3,3.5-0.3,5.2-0.1c1.7,0.2,3.4,0.6,5,1.3
				c0.9,0.3,1.6,0.8,2.5,1.1c0.8,0.4,1.6,1,2.6,1.4c-0.5-0.9-1-1.7-1.7-2.5c-0.7-0.7-1.4-1.5-2.3-2c-1.6-1.3-3.7-2-5.8-2.2
				c-2.1-0.3-4.2,0.1-6.1,0.8C751.2,1498.3,749.5,1499.5,748.2,1501.1z"/>
			<path class="st24" d="M731.8,1503c-1.5-1.3-3.4-2.1-5.4-2.5c-2-0.4-4.2-0.3-6.2,0.4c-2,0.7-3.9,1.8-5.3,3.3
				c-0.8,0.7-1.3,1.6-1.8,2.4c-0.5,0.9-0.9,1.8-1.1,2.8c0.8-0.6,1.5-1.3,2.3-1.8c0.8-0.5,1.4-1.2,2.2-1.6c1.5-1,3-1.7,4.6-2.3
				c1.6-0.5,3.3-0.8,5.1-0.9C727.9,1502.7,729.8,1502.7,731.8,1503z"/>
			<path class="st23" d="M625.4,1668.3c0.3,0.7-0.4,1.5-1.1,1.3c-6-1.3-24.8-5.1-25.5-3.7c-0.8,1.7,16,5.6,16.2,7.3
				c0.2,1.7-16-2.4-16.6-0.4c-0.6,2,14.4,5.3,14.4,6.2c0.1,0.9-14.6-0.7-15.6,0.2c-1,1,14.4,4.6,14.8,5.7c0.4,1.1-11.1,2.1-11.1,3.1
				c0,1-0.2,1.7,26.3,6.8l10.5,1.6l9.3-3.4l0.4-11.9c0,0-23.3-25.8-24.7-25.6C621.3,1655.8,621,1657,625.4,1668.3z"/>
			<path class="st33" d="M787.5,1562.6c0,0,52.6,63.4,45.5,175.1c-7.2,111.7-8.4,112.5-8.4,112.5s-32.3-3.5-56.2-22.6
				c-23.9-19.1-53.2-32.2-53.2-32.2l19.4-63c0,0-25.3,0.8-43.6-6.9c-18.3-7.7-56.6-28.2-56.6-28.2s3.2-18.9,7.2-24.7
				c0,0,48.6,14.9,73.1,15.2C714.7,1687.7,743.1,1599.9,787.5,1562.6z"/>
			<path class="st0" d="M783.7,1582.9c-8,6.9-15.4,14.6-22.3,22.6c-7,8-13.4,16.5-19.3,25.3l-2.2,3.3c-0.7,1.1-1.5,2.2-2.1,3.3
				l-4.1,6.8c-0.7,1.1-1.3,2.3-1.9,3.5l-1.9,3.5l-1.9,3.5c-0.6,1.2-1.2,2.4-1.7,3.6l-3.4,7.2l-3,7.4l-1.5,3.7l-1.2,3.8
				c-0.8,2.5-1.7,5-2.5,7.5c1-2.5,2-4.9,2.9-7.4l1.4-3.7l1.6-3.6l3.2-7.2l3.6-7c0.6-1.2,1.2-2.4,1.8-3.5l1.9-3.4l1.9-3.4
				c0.7-1.1,1.3-2.3,2-3.4l4.2-6.7c0.7-1.1,1.4-2.2,2.2-3.3l2.2-3.3c5.9-8.7,12.2-17.2,18.9-25.4l5.1-6c1.8-2,3.5-4,5.2-5.9
				C776.3,1590.5,780,1586.7,783.7,1582.9z"/>
			<path class="st0" d="M806.4,1627.2c-4.3,9.8-9,19.4-13.7,28.9c-2.4,4.7-4.9,9.5-7.4,14.1c-2.5,4.7-5.1,9.3-7.9,13.9
				c-2.7,4.6-5.5,9.1-8.5,13.5c-1.4,2.2-3,4.4-4.5,6.6c-1.6,2.1-3.1,4.3-4.8,6.4c-3.3,4.2-6.8,8.2-10.6,11.9c-3.8,3.7-8,7-12.8,9.5
				c4.9-2.1,9.3-5.3,13.3-8.8c4-3.6,7.7-7.5,11.1-11.6c3.5-4.1,6.6-8.4,9.6-12.8c3-4.4,5.9-8.9,8.6-13.5c5.5-9.2,10.4-18.7,15-28.3
				C798.5,1647,802.7,1637.2,806.4,1627.2z"/>
			<path class="st24" d="M786,1505c2-1.1,2.3-1,5.1-1.6l2-1l-1.4-2.5l-1-0.1l-0.6-7.9l-3.5-7.3c0,0-13.9-19.7-14.4-20.2
				s-11.1-6.8-11.7-7.2c-0.7-0.3-15.5,2.1-15.5,2.1s-26.1-5.6-21.7,9c4.4,14.6,23.5,22.2,24.5,21.5c-3.1-3.3-3.4-12.6-3.4-12.6
				C757.8,1492.6,782.1,1503.3,786,1505z"/>
			<path class="st24" d="M777.3,1500.9c0,0,7,12.2,0,16.9c0,0,12.5-0.2,16.9-15.7c4.3-15.5-4.9-9.3-5.8-9
				C787.3,1493.2,777.3,1500.9,777.3,1500.9z"/>
			<path class="st24" d="M711.9,1469.1l-11.2,40.1c0,0,15.5-32.8,27.7-37c12.3-4.2-2.7-10.5-2.7-10.5L711.9,1469.1z"/>
		</g>
		<path class="st0" d="M758,1533.5c0,5.2-3.9,10.1-9.7,11.3c-5.7,1.2-11.3-1.6-13.4-6.4L758,1533.5z"/>
	</g>
	<g>
		<g>
			<g>
				<path class="st23" d="M1496.4,1398.8c2.6-2.2,5-4.6,7.3-7c1.9-3.4,4.2-6,5.3-7.2c0.8-0.9,2.9-6,3.3-8.2c1.1-6,4.2-5.4,5.1-2
					c0.8,3,0.8,6.2,0.3,9.2c-0.3,1.8-1.8,5.1-3.1,7.8c2.7-0.1,4.7-0.1,4.7-0.1l7.4,0.7c1.5,0.1,2.8,0.8,3.9,1.9
					c1.4,1.5,1.9,3.6,1.2,5.5c-0.2,0.7-1.6,3.7-2.2,4.6c-2.3,3.5-7.3,3.5-7.3,3.5c-1.7-0.1-3.2-0.2-4.4-0.4l-11.2,14.9l-9.2,1.4
					l-6.2-20.5C1492.8,1401.7,1494.6,1400.3,1496.4,1398.8z"/>
				<path class="st23" d="M1527.9,1410.2c0.6-0.9,1.9-3.9,2.2-4.6c0.6-1.9,0.1-4-1.2-5.5l-1.6-1.7l-2.7,4.3l0,0
					c-1.7,3.5-1.5,3.3-7.2,2.7c-8.1-0.7-7.4,4.3-7.4,4.3s0.4,3.5,10.6,3.9C1520.6,1413.7,1525.5,1413.8,1527.9,1410.2z"/>
				<path class="st23" d="M1526.4,1414.4c0.5-0.8,1.8-3.7,2.1-4.4c0.6-1.8,0.1-3.8-1.2-5.2l-1.5-1.6l-2.5,4.1l0,0
					c-1.7,3.3-1.5,3.1-6.9,2.6c-7.7-0.7-7,4.1-7,4.1s0.4,3.3,10.1,3.7C1519.5,1417.7,1524.2,1417.8,1526.4,1414.4z"/>
				<path class="st23" d="M1522.6,1418.9c0.5-0.7,1.6-3.1,1.7-3.7c0.5-1.5,0.1-3.2-1-4.4l-1.3-1.3l-2.1,3.5l0,0
					c-1.4,2.8-1.2,2.6-5.8,2.2c-6.5-0.6-5.9,3.4-5.9,3.4s0.3,2.8,8.5,3.1C1516.7,1421.6,1520.7,1421.7,1522.6,1418.9z"/>
				<g>
					<g>
						<path class="st26" d="M1526.2,1396.6c-0.3,0.8-0.6,1.6-1.2,2.3c-0.3,0.4-0.7,0.7-1.1,0.8c-0.4,0.1-0.9,0.2-1.3,0.2
							c-1.7,0-3.4-0.2-5.1-0.2c-0.8,0-1.7,0.1-2.4,0.3c-0.8,0.2-1.5,0.5-2,1.1c-0.5,0.5-0.9,1.2-0.9,2c0,0.2,0,0.4,0,0.5
							c0,0.1,0.1,0.3,0.2,0.4c0.2,0.3,0.5,0.6,0.7,0.8c1.2,1,2.9,1.4,4.5,1.8c1.6,0.3,3.3,0.5,5,0.6c1.6,0,3.3-0.4,4.8-1.2
							c0.7-0.4,1.4-0.9,1.9-1.6c0.3-0.3,0.5-0.7,0.7-1.1l0.7-1.1c-0.4,0.8-0.6,1.6-1.1,2.3s-1.1,1.3-1.9,1.8c-1.5,1-3.2,1.4-5,1.6
							c-1.8,0-3.5-0.1-5.2-0.4c-0.9-0.2-1.7-0.4-2.5-0.7c-0.8-0.3-1.7-0.7-2.4-1.3c-0.4-0.3-0.7-0.6-1-1.1c-0.1-0.2-0.2-0.4-0.3-0.8
							c0-0.3,0-0.5,0-0.7c0.1-1,0.5-1.9,1.3-2.5c0.7-0.6,1.6-1,2.5-1.2c0.4-0.1,0.9-0.1,1.3-0.2c0.4,0,0.9,0,1.3,0
							c1.8,0.1,3.4,0.4,5.1,0.5c0.8,0.1,1.7,0,2.2-0.6C1525.4,1398.1,1525.8,1397.3,1526.2,1396.6z"/>
					</g>
				</g>
				<g>
					<g>
						<path class="st26" d="M1513.6,1405.6c-0.6,0.2-1.2,0.4-1.8,0.8c-0.5,0.4-1,0.8-1.2,1.4c-0.3,0.5-0.4,1.2-0.4,1.8
							c0,0.5,0.5,1,0.9,1.4c1,0.7,2.2,1.2,3.4,1.5c1.2,0.3,2.5,0.5,3.8,0.6c0.6,0.1,1.3,0.1,1.9,0.1c0.6,0.1,1.2,0,1.9-0.1
							c1.2-0.2,2.5-0.6,3.5-1.2c0.5-0.3,1-0.7,1.4-1.2c0.2-0.2,0.4-0.5,0.6-0.7l0.5-0.8c0.6-1.1,1.2-2.3,1.8-3.5
							c-0.4,1.2-0.9,2.5-1.4,3.7c-0.3,0.6-0.6,1.2-1,1.8c-0.4,0.5-0.9,1-1.5,1.4c-1.1,0.8-2.5,1.2-3.8,1.5c-0.7,0.1-1.3,0.2-2.1,0.2
							c-0.7,0-1.3,0-2-0.1c-1.3-0.1-2.6-0.3-3.9-0.7c-1.3-0.4-2.6-0.9-3.7-1.8c-0.3-0.2-0.5-0.5-0.7-0.8c-0.1-0.2-0.2-0.3-0.3-0.5
							c-0.1-0.2-0.1-0.4-0.1-0.6c0-0.7,0.2-1.4,0.6-2C1511,1406.4,1512.4,1405.8,1513.6,1405.6z"/>
					</g>
				</g>
				<g>
					<g>
						<path class="st26" d="M1510.6,1411c-0.7,0.7-1,1.6-1,2.5c-0.1,0.8,0.7,1.4,1.4,1.9c0.8,0.4,1.6,0.8,2.5,1
							c0.9,0.2,1.8,0.4,2.7,0.5c0.9,0.1,1.8,0.2,2.8,0.3c0.9,0.1,1.8,0,2.7-0.2c1.8-0.4,3.5-1.1,4.7-2.6c-0.4,0.9-1.1,1.6-1.9,2.1
							c-0.8,0.6-1.7,1-2.6,1.2c-0.9,0.3-1.9,0.4-2.9,0.4c-1,0-1.9-0.1-2.9-0.2c-1.9-0.3-3.8-0.7-5.5-1.8c-0.4-0.3-0.8-0.6-1.1-1.1
							c-0.1-0.2-0.3-0.4-0.4-0.7c-0.1-0.3-0.1-0.6,0-0.8C1509.3,1412.5,1509.8,1411.5,1510.6,1411z"/>
					</g>
				</g>
				<g>
					<g>
						<path class="st26" d="M1510.4,1415.4c-0.8,0.4-1.4,0.9-1.7,1.7c-0.1,0.4-0.2,0.8-0.2,1.1c0,0.1,0,0.2,0,0.3c0,0,0,0.1,0.1,0.2
							c0.1,0.1,0.2,0.3,0.3,0.4c0.5,0.5,1.3,0.9,2,1.1c0.8,0.3,1.6,0.5,2.4,0.6c0.8,0.1,1.6,0.2,2.5,0.3c0.4,0,0.8,0.1,1.2,0.1
							c0.4,0,0.8-0.1,1.2-0.1c1.6-0.3,3.2-0.9,4.3-2.2c-0.8,1.6-2.5,2.6-4.2,3c-0.4,0.1-0.9,0.2-1.3,0.2c-0.5,0-0.9,0-1.3,0
							c-0.9,0-1.7-0.1-2.6-0.3c-0.9-0.2-1.7-0.4-2.6-0.7c-0.8-0.3-1.7-0.8-2.3-1.5c-0.2-0.2-0.3-0.4-0.4-0.6
							c-0.1-0.1-0.1-0.2-0.1-0.4c0-0.1,0-0.3,0-0.4c0-0.5,0.2-0.9,0.4-1.3C1508.7,1416.1,1509.5,1415.6,1510.4,1415.4z"/>
					</g>
				</g>
			</g>
			<path class="st23" d="M1491.2,1402.8l-66.2,20.5l-29.9-49.8l-25.4,42.1c0,0,32.1,50.2,39.1,52.7s88.6-45,88.6-45s5.8-20.5,4.6-20
				C1500.7,1403.7,1491.2,1402.8,1491.2,1402.8z"/>
		</g>
		<path class="st23" d="M1252.7,1845.7l0.4,15.7l19.2,13.9c0,0,9.1-12.2,8.9-13.9s0-28.9,0-28.9s-22,8.3-22.9,8.3
			S1252.7,1845.7,1252.7,1845.7z"/>
		<polygon class="st23" points="1346.5,1861.5 1346.5,1842 1368.8,1835.8 1373.8,1838 1374.6,1861.5 1367.6,1881.9 		"/>
		<path class="st24" d="M1315,1562.5l-28.1,285.9c-11-0.5-22.5-1.3-34.1-2.6c-1.3-54.8-5.1-218.7-4.5-284.5
			c0.7-79.6,24.5-91.2,24.5-91.2l40.6-10.6l55.4,9.8C1351.6,1536.3,1315,1562.5,1315,1562.5z"/>
		<path class="st24" d="M1378.8,1845c-8.3,1-19.9,2.1-33.7,2.9l-29.5-330.5l-3.1-52.6c0,0,45.3-21.8,60.3,4.1
			c15,25.9,14.5,64.5,14.5,64.5S1385.4,1776.9,1378.8,1845z"/>
		<path class="st23" d="M1186,1392c0,0-17.9,25.4-15.9,30.9c2,5.5,91,77.7,91,77.7s2.4,19.4,12.6,24.5l12.9-23.2l-73.6-81.8l5.8-8.2
			L1186,1392z"/>
		<path class="st8" d="M1369.1,1301.1c0,0,8.2,2.4,20,20.6c11.8,18.2,22.3,68.4,22.3,68.4l-37.7,25.6l-24.5-60.7L1369.1,1301.1z"/>
		<polygon class="st23" points="1306.6,1273 1302.8,1303.5 1333,1302.4 1332.1,1267.6 		"/>
		<path class="st32" d="M1332.5,1283.6l-0.4-16l-25.9,8.3l-0.7,6C1311.2,1284.1,1322.1,1286.7,1332.5,1283.6z"/>
		<polygon class="st24" points="1356.5,1215.9 1355.8,1237 1352.2,1238.7 1349.1,1212.5 		"/>
		<path class="st26" d="M1349.8,1234.1c-1.5,4.6,0.3,9.3,4,10.5s7.9-1.6,9.4-6.2c1.5-4.6-0.3-9.3-4-10.5
			C1355.5,1226.7,1351.3,1229.5,1349.8,1234.1z"/>
		<path class="st23" d="M1352.9,1254.1c1.7-5.9,2.3-12.1,2.4-17.5c0-1.2,0.1-2.3,0.2-3.5c0.4-4.6,0-9.5-1.4-14.4
			c-4.7-15.8-19.6-26.8-36.1-26.7c-22.2,0.1-39.1,19-37.4,40.5c-2.5-1.1-5.1-1.2-7.3,0c-4.3,2.3-5.4,8.6-2.5,13.9s8.8,7.8,13.1,5.5
			c0.6-0.3,1.1-0.7,1.6-1.2c3.3,18.2,19.5,31.2,37.5,29.4C1336.7,1278.9,1349,1269.1,1352.9,1254.1z"/>
		<path class="st24" d="M1314.5,1233.1c0.2,1.8-1.1,3.4-3,3.6c-1.8,0.2-3.4-1.1-3.6-3s1.1-3.4,3-3.6
			C1312.7,1230,1314.3,1231.3,1314.5,1233.1z"/>
		<path class="st24" d="M1342.7,1232.3c0.2,1.8-1.1,3.4-3,3.6c-1.8,0.2-3.4-1.1-3.6-3c-0.2-1.8,1.2-3.4,3-3.6
			C1341,1229.1,1342.6,1230.5,1342.7,1232.3z"/>
		<path class="st24" d="M1317.8,1226.3c-1.7-0.5-3.2-0.9-4.8-1.1c-1.6-0.2-3.1-0.2-4.6,0c-1.5,0.2-3,0.6-4.4,1.3l-0.5,0.2
			c-0.2,0.1-0.3,0.2-0.5,0.3l-1.1,0.6c-0.7,0.4-1.4,0.9-2.2,1.3c0.4-0.8,0.9-1.5,1.4-2.2c0.6-0.6,1.2-1.3,1.9-1.8
			c1.4-1.1,3.2-1.8,5-2.1c1.8-0.3,3.7-0.1,5.4,0.5C1315.1,1224,1316.7,1224.9,1317.8,1226.3z"/>
		<path class="st24" d="M1331,1225.7c1-1.4,2.5-2.5,4.1-3.3c1.6-0.8,3.5-1.1,5.3-1c1.8,0.1,3.7,0.6,5.2,1.6c0.8,0.4,1.4,1.1,2.1,1.6
			c0.6,0.6,1.1,1.3,1.6,2.1c-0.8-0.3-1.5-0.8-2.3-1.1l-1.1-0.5c-0.2-0.1-0.4-0.2-0.5-0.2l-0.6-0.2c-1.5-0.6-3-0.8-4.5-0.9
			c-1.5-0.1-3,0.1-4.6,0.4C1334.2,1224.5,1332.6,1225,1331,1225.7z"/>
		<path class="st24" d="M1357.9,1190.7c0,0,11.3-0.8-1.5-9.1c-12.8-8.2-45.5-16.1-64.7-3.3c0,0-5-8.2-10.6-5.5
			c-5.6,2.7,4.6,7.6,4.6,7.6s-7.5,0.5-9.4,4.4c-1.4,2.9,3.2,2.5,5.7,2.1c-4.2,1.2-17.2,10.8-5.6,42.8c2.8-0.9,23.2-23.7,23.2-23.7
			s33.7,15.7,28.4,5.4c0,0,39.6,15.1,31.9-4.5C1360,1207,1375.3,1206.5,1357.9,1190.7z"/>
		<path class="st26" d="M1325.9,1225.6c-0.5,2.3-0.6,4.7-0.5,7.1c0.1,1.2,0.3,2.4,0.6,3.6c1.1,4,2.3,3.7,2.9,4.7
			c0.3,0.3,0.5,0.7,0.6,1.1c0.3,0.8,0,1.7-0.5,2.5c-1.1,1.7-3.1,2.8-5.3,3.6c2.3,0.2,5-0.5,6.8-2.5c0.9-1,1.5-2.5,1.2-4
			c-0.2-0.8-0.4-1.3-0.9-2c-0.7-1-1.4-0.7-2.6-3.9c-0.4-1-0.6-2.1-0.9-3.2C1326.7,1230.2,1326.3,1227.9,1325.9,1225.6z"/>
		<path class="st24" d="M1299.7,1206.1c0,0-9.8,22.4-8.2,34.5c0,0-7.1-10-16.1-8.8c0,0-6.1-19.8-2.5-33.4l21,1.2L1299.7,1206.1z"/>
		<path class="st0" d="M1336,1252.7c-1.1,4-5.9,7-11.6,6.9c-5.7-0.1-10.4-3.2-11.4-7.3L1336,1252.7z"/>
		<path class="st34" d="M1409.9,1385.2l-37.3,24.7c-1.3,0.8-1.8,2.5-1.1,3.8l5.4,11.9c0.8,1.8,3.1,2.4,4.8,1.3l37.8-25
			c1.3-0.9,1.8-2.6,1.1-4l-5.9-11.7C1413.7,1384.7,1411.5,1384.1,1409.9,1385.2z"/>
		<path class="st7" d="M1270.2,1296.4c7.5-4.4,22.3-7.2,31.1-8.7c5.3,4.5,29.5,3.4,34.8,1c12.1,4.6,39.6,11.7,39.9,19.1
			c6,160.1-3.1,161.6-3.1,161.6c-16.8,7.4-88.1,3.3-99.5,0s-20-80.1-20-80.1l-34.5,32.6c-11.9-11.4-35.7-26.6-35.7-26.6
			S1234.7,1317.3,1270.2,1296.4z"/>
		<path class="st0" d="M1290.7,1325.9c-1.5,2.7-2.9,5.4-4.5,8.1l-4.5,8c-1.5,2.7-3,5.4-4.5,8c-1.5,2.7-3,5.3-4.6,8
			c-1.5,2.6-3.1,5.3-4.7,7.9c-0.8,1.3-1.5,2.6-2.4,3.9l-2.4,3.9l-2.4,3.9c-0.4,0.6-0.8,1.3-1.2,1.9l-1.3,1.9l-1.2,1.9l-0.6,1l-0.6,1
			c-0.9,1.3-1.7,2.5-2.6,3.8c3.8-4.8,7.4-9.8,10.8-14.9c3.4-5.1,6.6-10.4,9.7-15.7c3.1-5.3,6-10.7,8.9-16.2
			C1285.5,1337,1288.2,1331.5,1290.7,1325.9z"/>
		<path class="st35" d="M1266.1,1530.8c3.8,1.4,7.6,3,11.3,4.7c3.7,1.7,7.4,3.4,11,5.2c3.6,1.8,7.2,3.7,10.8,5.6
			c3.6,1.9,7.1,3.9,10.7,5.9l0.3-0.7c-2.7-0.6-5.3-1-8-1.3c-2.7-0.3-5.4-0.4-8.1-0.4c-2.7,0-5.4,0.1-8.1,0.5l-2,0.3l-2,0.4l-1,0.2
			l-1,0.2l-2,0.5l2-0.4l1-0.2l1-0.1l2-0.3l2-0.2c0.7-0.1,1.3-0.1,2-0.1c0.7,0,1.3-0.1,2-0.1l2,0c0.7,0,1.3,0,2,0
			c2.7,0.1,5.3,0.2,8,0.5c2.7,0.3,5.3,0.7,7.9,1.3l2.4,0.5l-2.1-1.2c-3.5-2.1-7.1-4.1-10.7-5.9c-3.6-1.9-7.2-3.7-10.9-5.5
			c-3.7-1.8-7.4-3.4-11.1-5c-1.9-0.8-3.8-1.5-5.7-2.2C1270,1532.1,1268,1531.4,1266.1,1530.8z"/>
		<path class="st35" d="M1372.8,1529.2c-1.9,0.6-3.9,1.3-5.8,2c-1.9,0.7-3.8,1.5-5.7,2.2c-3.7,1.6-7.5,3.2-11.1,5
			c-3.7,1.8-7.3,3.6-10.9,5.5c-3.6,1.9-7.2,3.9-10.7,5.9l-2.1,1.2l2.4-0.5c2.6-0.6,5.2-1,7.9-1.3c2.7-0.3,5.3-0.5,8-0.6
			c0.7,0,1.3,0,2,0l2,0c0.7,0,1.3,0.1,2,0.1c0.7,0,1.3,0.1,2,0.1l2,0.2l2,0.3l1,0.1l1,0.2l2,0.4l-2-0.5l-1-0.2l-1-0.2l-2-0.4l-2-0.3
			c-2.7-0.3-5.4-0.5-8.1-0.5c-2.7,0-5.4,0.1-8.1,0.4c-2.7,0.3-5.3,0.7-8,1.3l0.3,0.7c3.5-2,7.1-4,10.7-5.9c3.6-1.9,7.2-3.8,10.8-5.6
			c3.6-1.8,7.3-3.6,11-5.2C1365.2,1532.2,1369,1530.6,1372.8,1529.2z"/>
		<path class="st35" d="M1364.7,1483.2c-3.3,0.6-6.6,1.1-9.9,1.5c-3.3,0.4-6.6,0.8-10,1.2c-6.7,0.7-13.4,1.1-20.1,1.2
			c-3.3,0.1-6.7,0.1-10,0c-3.3-0.1-6.7-0.3-10-0.6c-3.3-0.3-6.7-0.7-10-1.2c-3.3-0.6-6.6-1.2-9.8-2.1c3.2,0.9,6.5,1.7,9.8,2.3
			c3.3,0.6,6.6,1,10,1.4c3.3,0.3,6.7,0.5,10,0.6c3.4,0.1,6.7,0.1,10.1,0c6.7-0.2,13.4-0.6,20.1-1.3c3.3-0.4,6.7-0.8,10-1.3
			C1358.1,1484.5,1361.4,1483.9,1364.7,1483.2z"/>
		<path class="st36" d="M1290.8,1493.6c-0.1,0.4-0.3,0.8-0.5,1.2l-0.6,1.1l-1.2,2.3l-2,3.7l-5.6,10c-0.8,1.5-8.1,14.6-9.8,17.6
			c2.2-2.6,4.7-5.3,6.5-8.2c0.9-1.5,1.7-2.9,2.5-4.4c0.8-1.5,1.6-3,2.4-4.5c1.5-3,3-6.1,4.4-9.2c0.7-1.6,1.4-3.1,2-4.7
			c0.3-0.8,0.6-1.6,0.9-2.4C1290.3,1495.2,1290.7,1494.4,1290.8,1493.6z"/>
		<path class="st34" d="M1231.4,1408.5l-36.2-28.1c-1.7-1.3-4.2-1-5.5,0.7l-8.5,11.3c-1.3,1.7-0.9,4.1,0.8,5.3l35.6,27.1
			c1.6,1.2,3.9,1,5.2-0.5l9-10.3C1233.4,1412.4,1233.2,1409.8,1231.4,1408.5z"/>
		<g>
			<path class="st24" d="M1318.1,1890.1l-68.5,0c-1.6,0-3-1.3-3-3l0-1.5c0-1.6,1.3-3,3-3l68.5,0c1.6,0,3,1.3,3,3l0,1.6
				C1321.1,1888.8,1319.8,1890.1,1318.1,1890.1z"/>
			<path class="st20" d="M1250,1859.9l-2.5,20.8c-0.3,2.6,1.1,4.9,3,4.9l65.6,0c1.7,0,3.4-1.1,4.3-3.1c0.9-2.1,1.1-5.1-1.8-9.3
				c-5.8-8.2-24.5-10.2-34.1-17c-0.3-0.2-0.7-0.4-1.2-0.4l-29.9,0C1251.7,1855.9,1250.3,1857.6,1250,1859.9z"/>
			<g>
				<path class="st24" d="M1279.4,1867.9L1279.4,1867.9c-0.5-0.3-0.6-1.1-0.4-1.7c1.3-2.9,5.3-9.8,13.5-8.4c0.5,0.1,0.8,0.7,0.7,1.4
					l0,0c-0.1,0.6-0.5,1-1,1c-7.3-1.3-10.8,4.9-11.8,7.3C1280.2,1868,1279.8,1868.2,1279.4,1867.9z"/>
			</g>
			<g>
				<path class="st24" d="M1286.2,1870.6L1286.2,1870.6c-0.5-0.3-0.6-1.1-0.4-1.7c1.3-2.9,5.3-9.8,13.5-8.4c0.5,0.1,0.8,0.7,0.7,1.4
					l0,0c-0.1,0.6-0.5,1-1,1c-7.3-1.3-10.8,4.9-11.8,7.3C1287.1,1870.7,1286.6,1870.9,1286.2,1870.6z"/>
			</g>
			<g>
				<path class="st24" d="M1292.5,1873.1L1292.5,1873.1c-0.5-0.3-0.6-1.1-0.4-1.7c1.3-2.9,5.3-9.8,13.5-8.4c0.5,0.1,0.8,0.7,0.7,1.4
					l0,0c-0.1,0.6-0.5,1-1,1c-7.3-1.3-10.8,4.9-11.8,7.3C1293.4,1873.2,1292.9,1873.4,1292.5,1873.1z"/>
			</g>
			<path class="st25" d="M1267.2,1882.9c-4.6-12.5-11.4-15.3-16.1-15.6c-1.1-0.1-2,0.7-2.1,1.8l-1.4,11.6c-0.3,2.6,1.1,4.9,3,4.9
				l14.7,0C1266.7,1885.6,1267.7,1884.2,1267.2,1882.9z"/>
		</g>
		<g>
			<path class="st24" d="M1411.5,1889.5l-68.5,0.7c-1.6,0-3-1.3-3-2.9l0-1.6c0-1.6,1.3-3,2.9-3l68.5-0.7c1.6,0,3,1.3,3,2.9l0,1.6
				C1414.5,1888.1,1413.2,1889.4,1411.5,1889.5z"/>
			<path class="st20" d="M1343.2,1859.9l-2.3,20.9c-0.3,2.6,1.2,4.9,3.1,4.9l65.6-0.6c1.7,0,3.4-1.1,4.3-3.1
				c0.9-2.1,1.1-5.2-1.9-9.3c-5.8-8.1-24.6-10-34.3-16.7c-0.3-0.2-0.8-0.4-1.2-0.4l-29.9,0.3
				C1344.9,1855.8,1343.4,1857.5,1343.2,1859.9z"/>
			<g>
				<path class="st24" d="M1372.6,1867.6L1372.6,1867.6c-0.5-0.3-0.7-1.1-0.4-1.7c1.3-2.9,5.2-9.9,13.4-8.5c0.5,0.1,0.8,0.7,0.7,1.4
					l0,0c-0.1,0.6-0.5,1-1,1c-7.4-1.2-10.7,5-11.7,7.4C1373.5,1867.7,1373,1867.9,1372.6,1867.6z"/>
			</g>
			<g>
				<path class="st24" d="M1379.4,1870.3L1379.4,1870.3c-0.5-0.3-0.7-1.1-0.4-1.7c1.3-2.9,5.2-9.9,13.4-8.5c0.5,0.1,0.8,0.7,0.7,1.4
					l0,0c-0.1,0.6-0.5,1-1,1c-7.4-1.2-10.7,5-11.7,7.4C1380.3,1870.3,1379.8,1870.5,1379.4,1870.3z"/>
			</g>
			<g>
				<path class="st24" d="M1385.8,1872.7L1385.8,1872.7c-0.5-0.3-0.7-1.1-0.4-1.7c1.3-2.9,5.2-9.9,13.4-8.5c0.5,0.1,0.8,0.7,0.7,1.4
					l0,0c-0.1,0.6-0.5,1-1,1c-7.4-1.2-10.7,5-11.7,7.4C1386.7,1872.7,1386.2,1872.9,1385.8,1872.7z"/>
			</g>
			<path class="st25" d="M1360.5,1882.7c-4.7-12.4-11.6-15.2-16.3-15.4c-1.1,0-2,0.8-2.1,1.8l-1.3,11.6c-0.3,2.6,1.2,4.9,3.1,4.9
				l14.7-0.1C1360.1,1885.4,1361,1884,1360.5,1882.7z"/>
		</g>
	</g>
	<g>
		<path class="st0" d="M953.1,1406.7h7.6c2.5,0,4.9,0.4,7,1.1c2.1,0.8,3.9,1.9,5.4,3.3c1.2,1.2,2.1,2.6,2.8,4.3c0.7,1.7,1,3.5,1,5.6
			v0.2c0,2-0.3,3.8-0.8,5.2c-0.5,1.5-1.3,2.8-2.2,3.9c-0.9,1.1-1.9,2-3.1,2.7c-1.2,0.7-2.4,1.3-3.7,1.7c3.1,0.9,5.6,2.4,7.6,4.5
			c2,2.1,2.9,5.2,2.9,9.1v0.2c0,2.4-0.4,4.5-1.3,6.4c-0.9,1.9-2.1,3.4-3.6,4.7c-1.5,1.3-3.4,2.3-5.6,2.9c-2.2,0.7-4.6,1-7.3,1h-6.6
			V1406.7z M971.5,1421.6c0-3.2-1-5.7-2.9-7.4c-1.9-1.7-4.5-2.6-7.7-2.6h-2.7v21h1.9c3.7,0,6.5-0.9,8.5-2.8c2-1.9,2.9-4.6,2.9-8
			V1421.6z M972.2,1448.1c0-3.5-1-6.1-3.1-8c-2.1-1.9-5-2.8-8.7-2.8h-2.1v21.5h1.7c3.7,0,6.7-0.9,8.9-2.6c2.2-1.8,3.3-4.4,3.3-7.8
			V1448.1z"/>
		<path class="st0" d="M996.3,1464.4c-3.9,0-7-1.4-9.3-4.1c-2.3-2.7-3.5-6.7-3.5-11.8v-41.8h5.3v42.1c0,3.6,0.7,6.3,2,8.1
			c1.4,1.8,3.2,2.7,5.5,2.7c2.3,0,4.2-0.9,5.5-2.7c1.4-1.8,2-4.5,2-8.1v-42.1h5.3v41.8c0,5.1-1.2,9-3.5,11.8
			C1003.3,1463,1000.2,1464.4,996.3,1464.4z"/>
		<path class="st0" d="M1017.1,1406.7h7.6c2.5,0,4.9,0.4,7,1.1c2.1,0.8,3.9,1.9,5.4,3.3c1.2,1.2,2.1,2.6,2.8,4.3
			c0.7,1.7,1,3.5,1,5.6v0.2c0,2-0.3,3.8-0.8,5.2c-0.5,1.5-1.3,2.8-2.2,3.9c-0.9,1.1-1.9,2-3.1,2.7c-1.2,0.7-2.4,1.3-3.7,1.7
			c3.1,0.9,5.6,2.4,7.6,4.5c2,2.1,2.9,5.2,2.9,9.1v0.2c0,2.4-0.4,4.5-1.3,6.4c-0.9,1.9-2.1,3.4-3.6,4.7c-1.5,1.3-3.4,2.3-5.6,2.9
			c-2.2,0.7-4.6,1-7.3,1h-6.6V1406.7z M1035.6,1421.6c0-3.2-1-5.7-2.9-7.4s-4.5-2.6-7.7-2.6h-2.7v21h1.9c3.7,0,6.5-0.9,8.5-2.8
			c2-1.9,2.9-4.6,2.9-8V1421.6z M1036.2,1448.1c0-3.5-1-6.1-3.1-8c-2.1-1.9-5-2.8-8.7-2.8h-2.1v21.5h1.7c3.7,0,6.7-0.9,8.9-2.6
			c2.2-1.8,3.3-4.4,3.3-7.8V1448.1z"/>
		<path class="st0" d="M1047.9,1406.7h7.6c2.5,0,4.9,0.4,7,1.1c2.1,0.8,3.9,1.9,5.4,3.3c1.2,1.2,2.1,2.6,2.8,4.3
			c0.7,1.7,1,3.5,1,5.6v0.2c0,2-0.3,3.8-0.8,5.2c-0.5,1.5-1.3,2.8-2.2,3.9c-0.9,1.1-1.9,2-3.1,2.7c-1.2,0.7-2.4,1.3-3.7,1.7
			c3.1,0.9,5.6,2.4,7.6,4.5c2,2.1,2.9,5.2,2.9,9.1v0.2c0,2.4-0.4,4.5-1.3,6.4c-0.9,1.9-2.1,3.4-3.6,4.7c-1.5,1.3-3.4,2.3-5.6,2.9
			c-2.2,0.7-4.6,1-7.3,1h-6.6V1406.7z M1066.3,1421.6c0-3.2-1-5.7-2.9-7.4c-1.9-1.7-4.5-2.6-7.7-2.6h-2.7v21h1.9
			c3.7,0,6.5-0.9,8.5-2.8c2-1.9,2.9-4.6,2.9-8V1421.6z M1067,1448.1c0-3.5-1-6.1-3.1-8c-2.1-1.9-5-2.8-8.7-2.8h-2.1v21.5h1.7
			c3.7,0,6.7-0.9,8.9-2.6c2.2-1.8,3.3-4.4,3.3-7.8V1448.1z"/>
		<path class="st0" d="M1078.6,1406.7h5.3v52.1h13.3v4.9h-18.6V1406.7z"/>
		<path class="st0" d="M1102,1406.7h20v4.9h-14.7v21h13.3v4.9h-13.3v21.3h15v4.9H1102V1406.7z"/>
		<path class="st0" d="M1004.2,1488.3h-8.6v-4.9h22.6v4.9h-8.7v52.1h-5.3V1488.3z"/>
		<path class="st0" d="M1023.4,1483.4h20v4.9h-14.7v21h13.3v4.9h-13.3v21.3h15v4.9h-20.3V1483.4z"/>
		<path class="st0" d="M1059.4,1483.2h5.7l12,57.2h-5.4l-3-14.7h-13.2l-2.9,14.7h-5.2L1059.4,1483.2z M1068,1520.8l-5.8-28.6
			l-5.8,28.6H1068z"/>
	</g>
	
		<ellipse transform="matrix(0.9736 -0.2284 0.2284 0.9736 -148.0637 190.2642)" class="st14" cx="748" cy="734.8" rx="69.2" ry="69.2"/>
	
		<ellipse transform="matrix(1.850876e-02 -0.9998 0.9998 1.850876e-02 399.0713 2575.187)" class="st7" cx="1511.2" cy="1084.3" rx="68.3" ry="68.3"/>
	<path class="st14" d="M1870.2,1433c-14,0-25.3,11.3-25.3,25.3s11.3,25.3,25.3,25.3s25.3-11.3,25.3-25.3S1884.2,1433,1870.2,1433z"
		/>
	
		<ellipse transform="matrix(9.853780e-02 -0.9951 0.9951 9.853780e-02 716.3185 1969.4108)" class="st5" cx="1445.2" cy="589.3" rx="68.8" ry="68.8"/>
	<path class="st14" d="M1579.2,473c-12.3,0-22.3,10-22.3,22.3c0,12.3,10,22.3,22.3,22.3s22.3-10,22.3-22.3
		C1601.5,483,1591.5,473,1579.2,473z"/>
	<circle class="st5" cx="485.1" cy="742.1" r="40.5"/>
	
		<ellipse transform="matrix(0.9741 -0.2261 0.2261 0.9741 -99.7018 156.1547)" class="st7" cx="631.7" cy="513.2" rx="37.2" ry="37.2"/>
	<circle class="st5" cx="1121" cy="251.8" r="56.3"/>
	<circle class="st14" cx="182.8" cy="1392" r="56.3"/>
	<path class="st14" d="M1644.1,878c-17.8,0-32.2,14.4-32.2,32.2c0,17.8,14.4,32.2,32.2,32.2c17.8,0,32.2-14.4,32.2-32.2
		C1676.3,892.4,1661.9,878,1644.1,878z"/>
	<path class="st4" d="M1766.1,1336.4c-11.5,0-20.9,9.3-20.9,20.9c0,11.5,9.3,20.9,20.9,20.9c11.5,0,20.9-9.3,20.9-20.9
		C1787,1345.7,1777.7,1336.4,1766.1,1336.4z"/>
	
		<ellipse transform="matrix(2.774535e-02 -0.9996 0.9996 2.774535e-02 813.7045 2685.0249)" class="st14" cx="1787.1" cy="924.2" rx="13.9" ry="13.9"/>
	
		<ellipse transform="matrix(0.9732 -0.2298 0.2298 0.9732 -252.1774 468.5855)" class="st4" cx="1886.1" cy="1317.2" rx="13.9" ry="13.9"/>
	
		<ellipse transform="matrix(0.3865 -0.9223 0.9223 0.3865 -53.2695 1090.381)" class="st14" cx="793" cy="585.2" rx="16.4" ry="16.4"/>
	<path class="st5" d="M95,1227.4c-13.7,0-24.8,11.1-24.8,24.8c0,13.7,11.1,24.8,24.8,24.8c13.7,0,24.8-11.1,24.8-24.8
		C119.8,1238.5,108.7,1227.4,95,1227.4z"/>
	<path class="st7" d="M975.2,342.3c-13.7,0-24.9,11.1-24.9,24.9c0,13.7,11.1,24.9,24.9,24.9c13.7,0,24.9-11.1,24.9-24.9
		C1000.1,353.5,989,342.3,975.2,342.3z"/>
	<path class="st7" d="M589.4,816c-10.3,0-18.6,8.3-18.6,18.6c0,10.3,8.3,18.6,18.6,18.6c10.3,0,18.6-8.3,18.6-18.6
		C608,824.4,599.7,816,589.4,816z"/>
	<circle class="st4" cx="344.1" cy="740.8" r="10.6"/>
	
		<ellipse transform="matrix(0.973 -0.231 0.231 0.973 -272.0588 77.5397)" class="st14" cx="195.1" cy="1200.7" rx="12.4" ry="12.4"/>
	<path class="st14" d="M1400.6,806.9c0,6.8,5.5,12.4,12.4,12.4c6.8,0,12.4-5.5,12.4-12.4c0-6.8-5.5-12.4-12.4-12.4
		C1406.1,794.5,1400.6,800.1,1400.6,806.9z"/>
	
		<ellipse transform="matrix(0.3827 -0.9239 0.9239 0.3827 247.7864 1924.7456)" class="st7" cx="1564.2" cy="777" rx="24.2" ry="24.2"/>
</g>
</svg>
